<?xml version="1.0" encoding="UTF-8" standalone="no"?>
<!-- Created with Inkscape (http://www.inkscape.org/) -->

<svg
   xmlns:dc="http://purl.org/dc/elements/1.1/"
   xmlns:cc="http://creativecommons.org/ns#"
   xmlns:rdf="http://www.w3.org/1999/02/22-rdf-syntax-ns#"
   xmlns:svg="http://www.w3.org/2000/svg"
   xmlns="http://www.w3.org/2000/svg"
   xmlns:xlink="http://www.w3.org/1999/xlink"
   xmlns:sodipodi="http://sodipodi.sourceforge.net/DTD/sodipodi-0.dtd"
   xmlns:inkscape="http://www.inkscape.org/namespaces/inkscape"
   version="1.1"
   id="svg3713"
   width="266.66666"
   height="266.66666"
   viewBox="0 0 266.66666 266.66666"
   sodipodi:docname="asimovnetr.svg"
   inkscape:version="0.92.4 (5da689c313, 2019-01-14)">
  <metadata
     id="metadata3719">
    <rdf:RDF>
      <cc:Work
         rdf:about="">
        <dc:format>image/svg+xml</dc:format>
        <dc:type
           rdf:resource="http://purl.org/dc/dcmitype/StillImage" />
        <dc:title></dc:title>
      </cc:Work>
    </rdf:RDF>
  </metadata>
  <defs
     id="defs3717">
    <linearGradient
       inkscape:collect="always"
       id="linearGradient4680">
      <stop
         style="stop-color:#5f8dd3;stop-opacity:1;"
         offset="0"
         id="stop4676" />
      <stop
         style="stop-color:#5f8dd3;stop-opacity:0;"
         offset="1"
         id="stop4678" />
    </linearGradient>
    <radialGradient
       inkscape:collect="always"
       xlink:href="#linearGradient4680"
       id="radialGradient4684"
       cx="131.6384"
       cy="110.21469"
       fx="131.6384"
       fy="110.21469"
       r="96.499992"
       gradientUnits="userSpaceOnUse" />
    <clipPath
       clipPathUnits="userSpaceOnUse"
       id="clipPath6230">
      <rect
         style="opacity:0;fill:#18151b;fill-opacity:0.99497483;stroke:#6065e5;stroke-width:2.45000005;stroke-miterlimit:4;stroke-dasharray:none;stroke-opacity:1"
         id="rect6232"
         width="167.23163"
         height="130.50847"
         x="110.16949"
         y="120.90395" />
    </clipPath>
    <clipPath
       clipPathUnits="userSpaceOnUse"
       id="clipPath6236">
      <rect
         style="opacity:0;fill:#18151b;fill-opacity:0.99497483;stroke:#6065e5;stroke-width:2.45000005;stroke-miterlimit:4;stroke-dasharray:none;stroke-opacity:1"
         id="rect6238"
         width="147.97298"
         height="130.96667"
         x="110.16949"
         y="120.90396" />
    </clipPath>
  </defs>
  <sodipodi:namedview
     pagecolor="#ffffff"
     bordercolor="#666666"
     borderopacity="1"
     objecttolerance="10"
     gridtolerance="10"
     guidetolerance="10"
     inkscape:pageopacity="0"
     inkscape:pageshadow="2"
     inkscape:window-width="1366"
     inkscape:window-height="706"
     id="namedview3715"
     showgrid="false"
     inkscape:zoom="1.7700001"
     inkscape:cx="201.87997"
     inkscape:cy="135.68437"
     inkscape:window-x="-8"
     inkscape:window-y="-8"
     inkscape:window-maximized="1"
     inkscape:current-layer="svg3713" />
  <path
     style="fill:#6772e5;fill-opacity:1;stroke:#6065e5;stroke-width:2.45;stroke-miterlimit:4;stroke-dasharray:none;stroke-opacity:1"
     d="M 108.14907,259.85168 C 93.104899,254.53159 80.437987,240.4376 71.707273,219.30427 69.622806,214.25866 67.136143,209.88863 66.181362,209.5931 57.483034,206.90066 44.787971,201.09709 37.99137,196.706 9.953083,178.59119 4.92425,152.83837 25.25927,131.50451 l 7.390975,-7.754 v -9.2581 c 0,-12.59889 3.056731,-20.528224 10.909552,-28.300051 C 51.412514,78.420642 58.377186,76.008939 73.033,75.986493 l 10.899987,-0.01668 5.7613,-6.026107 c 3.513935,-3.675453 8.72367,-7.469442 13.355613,-9.726222 6.54463,-3.188675 8.7963,-3.69674 16.29006,-3.675684 7.27461,0.02044 9.79339,0.570475 15.41241,3.365652 12.77797,6.356382 25.76202,22.858687 32.77366,41.654248 1.67503,4.49011 3.62047,8.16195 4.32321,8.15966 0.70273,-0.002 6.5778,2.60025 13.05569,5.78344 13.8,6.78121 25.72943,16.93662 31.03835,26.42269 3.12955,5.59189 3.43087,7.08629 3.42796,17.00127 -0.003,12.99496 -1.86121,17.30289 -11.99238,27.81428 l -6.50342,6.74751 -0.19472,9.32317 c -0.27197,13.02155 -3.52112,21.32393 -11.3034,28.88299 -7.18525,6.97915 -13.72459,9.53149 -26.65606,10.40406 l -9.24949,0.62412 -6.35903,6.0891 c -12.15122,11.63546 -26.09967,15.58681 -38.96367,11.03769 z m 26.36214,-14.14846 c 2.16158,-0.73353 5.13855,-2.10454 6.61549,-3.04669 2.61404,-1.66753 2.44516,-1.79385 -6.35902,-4.75628 -10.71494,-3.60539 -23.815,-10.04336 -33.03527,-16.23505 -3.656431,-2.45541 -6.648065,-3.86891 -6.648065,-3.1411 0,2.9339 8.528765,14.9459 14.351195,20.21238 8.56211,7.74459 16.38157,9.91705 25.07567,6.96674 z m 44.71715,-26.36081 c 5.40544,-2.50376 9.613,-7.33336 11.65982,-13.38362 2.34927,-6.94431 1.85368,-7.08186 -8.39305,-2.32961 -5.3399,2.47654 -10.21289,4.50282 -10.82885,4.50282 -0.96199,0 -6.05454,11.93249 -6.05454,14.18654 0,1.29939 8.30494,-0.51578 13.61662,-2.97613 z m -18.81415,-2.06799 c 1.14994,-2.52378 1.78591,-4.89045 1.41327,-5.25923 -0.37263,-0.36878 -4.32881,0.15138 -8.79149,1.15593 -4.4627,1.00456 -9.44207,1.82645 -11.06528,1.82645 -5.20771,0 -3.16235,2.13934 4.2749,4.47127 10.60357,3.32474 11.73362,3.14971 14.1686,-2.19442 z m -10.411,-26.12816 c 5.72314,-1.23864 12.48682,-2.94602 15.03043,-3.79419 4.26668,-1.42272 4.68526,-1.94048 5.4062,-6.68683 0.42979,-2.82957 0.82,-12.56422 0.86714,-21.63251 l 0.0856,-16.48781 -4.46071,-5.82528 c -5.19672,-6.7865 -17.46209,-19.20808 -25.01315,-25.3318 l -5.26733,-4.27166 -17.60401,-0.064 c -9.68221,-0.0352 -20.013138,0.31678 -22.957615,0.78212 -5.348445,0.84526 -5.355349,0.85234 -7.186966,7.37599 -3.716875,13.23836 -5.380344,26.88846 -5.380344,44.14996 v 17.29572 l 9.420442,9.02757 9.420453,9.02757 18.61709,-0.65644 c 11.88933,-0.41921 22.37741,-1.47026 29.02275,-2.90848 z M 53.97246,174.66234 C 46.344981,163.46868 40.535454,152.15223 36.859135,141.32703 l -2.67459,-7.8755 -2.768475,4.43327 c -2.008531,3.21637 -2.868707,6.47751 -3.133636,11.88043 -0.323115,6.58957 0.04093,8.13494 3.161021,13.42006 2.030946,3.44017 6.098605,7.88543 9.59266,10.48313 6.048529,4.49687 16.508191,10.43409 18.381813,10.43409 0.542933,0 -1.907527,-4.24807 -5.445468,-9.44017 z m 130.05027,4.34598 c 2.59201,-1.6194 4.71274,-3.61892 4.71274,-4.44337 0,-2.50258 -10.7725,-23.20093 -11.11556,-21.35751 -0.17567,0.94402 -0.50704,8.04085 -0.73636,15.77073 -0.45998,15.50471 -0.81811,15.00154 7.13918,10.03015 z m 17.5292,-16.01843 c 6.55201,-11.30501 3.88875,-23.21796 -7.48638,-33.48725 -5.13894,-4.63935 -20.05749,-13.59286 -21.03568,-12.62477 -0.17072,0.16897 0.41336,3.64925 1.29796,7.73398 0.8846,4.08472 1.62663,8.82674 1.64897,10.5378 0.0223,1.71107 2.40876,6.73403 5.30313,11.16214 2.89439,4.42812 7.11979,11.92167 9.3898,16.65234 4.70929,9.81414 5.2085,9.81532 10.8822,0.0258 z M 64.95212,119.17867 c 0.640678,-2.29641 1.048901,-4.27181 0.907167,-4.38978 -0.141741,-0.11795 -2.989204,0.82315 -6.327695,2.09137 -4.78808,1.81887 -6.069982,2.83976 -6.069982,4.83411 0,2.60045 3.165965,12.36838 5.893761,18.18398 1.484484,3.16491 1.591646,2.9269 2.985816,-6.63083 0.795331,-5.45244 1.970256,-11.79243 2.610933,-14.08885 z m 103.45595,5.70831 c -1.7331,-9.57094 -3.09327,-11.23283 -10.75725,-13.14347 -3.88824,-0.96934 -7.06438,-1.69121 -7.05811,-1.60416 0.0225,0.31224 17.91695,18.92034 18.25093,18.97883 0.1878,0.0329 -0.007,-1.87116 -0.43557,-4.2312 z M 67.783263,107.43699 c 0.217045,0 1.321956,-2.44586 2.455369,-5.43525 1.133405,-2.98938 3.59003,-8.468892 5.459159,-12.176692 l 3.398436,-6.741456 -4.830102,0.764396 c -5.60443,0.886943 -12.437739,4.105336 -15.24905,7.18209 -3.35233,3.668858 -6.659716,12.183742 -6.686259,17.213832 l -0.02541,4.81183 7.541615,-2.80937 c 4.147878,-1.54516 7.719185,-2.80938 7.936231,-2.80938 z m 92.971717,-6.57951 C 150.52125,77.819208 133.56454,66.352163 118.77457,72.468066 c -4.76509,1.970446 -12.12828,7.598932 -12.12831,9.270998 -3e-5,0.655723 2.99159,2.552006 6.64802,4.213962 3.65644,1.661956 11.31511,6.017175 17.01926,9.678262 8.19924,5.262532 12.19433,7.041652 19.07707,8.495582 4.78826,1.01147 9.8473,1.91259 11.24233,2.00245 l 2.5364,0.16341 z m -34.65699,-1.07869 c -1.37095,-1.66171 -21.7945,-11.794247 -23.77297,-11.794247 -1.27748,0 -8.359914,10.848197 -8.386018,12.844897 -0.0062,0.4566 7.480708,0.71405 16.637038,0.57214 12.72574,-0.19724 16.38262,-0.57956 15.52195,-1.62279 z"
     id="path3723"
     inkscape:connector-curvature="0" />
  <text
     xml:space="preserve"
     style="font-style:normal;font-weight:normal;font-size:40px;line-height:1.25;font-family:sans-serif;letter-spacing:0px;word-spacing:0px;fill:#fffff5;fill-opacity:0.99497485;stroke:#000001;stroke-width:5.4;stroke-miterlimit:4;stroke-dasharray:none;stroke-opacity:1;"
     x="42.083214"
     y="218.20737"
     id="text3727"><tspan
       sodipodi:role="line"
       id="tspan3725"
       x="42.083214"
       y="218.20737"
       style="font-style:normal;font-variant:normal;font-weight:normal;font-stretch:normal;font-size:281.33331299px;line-height:120;font-family:'Magmawave Caps';-inkscape-font-specification:'Magmawave Caps';fill:#fffff5;fill-opacity:0.99497485;stroke:#000001;stroke-width:5.4;stroke-miterlimit:4;stroke-dasharray:none;stroke-opacity:1;">A</tspan></text>
  <path
     style="opacity:0;fill:#6c5353;stroke-width:0.56497175"
     d="m 185.40866,107.64513 47.81106,-95.620793 47.63825,95.197063 c 26.20104,52.35839 47.65231,95.41617 47.66949,95.68397 0.0172,0.2678 -6.26113,0.36609 -13.95181,0.21842 -11.7433,-0.22548 -14.66678,-0.45363 -18.25164,-1.42437 -8.5979,-2.32821 -16.48654,-7.10352 -20.93554,-12.6731 -1.56741,-1.9622 -9.17318,-16.67486 -22.09746,-42.74552 -10.83908,-21.86443 -19.88186,-39.57906 -20.09506,-39.36586 -0.21321,0.2132 -6.14496,12.38194 -13.18167,27.04163 l -12.79403,26.65399 18.09106,0.14917 18.09107,0.14918 -0.36354,3.54839 c -1.64525,16.05859 -11.84838,29.62554 -26.87078,35.72969 -6.9967,2.84301 -10.51196,3.07894 -45.87578,3.07894 h -32.69469 z"
     id="path3735"
     inkscape:connector-curvature="0" />
  <path
     style="opacity:0;fill:#6c5353;stroke-width:0.56497175"
     d="m 185.40866,107.64513 47.81106,-95.620793 47.63825,95.197063 c 26.20104,52.35839 47.65231,95.41617 47.66949,95.68397 0.0172,0.2678 -6.26113,0.36609 -13.95181,0.21842 -11.7433,-0.22548 -14.66678,-0.45363 -18.25164,-1.42437 -8.5979,-2.32821 -16.48654,-7.10352 -20.93554,-12.6731 -1.56741,-1.9622 -9.17318,-16.67486 -22.09746,-42.74552 -10.83908,-21.86443 -19.88186,-39.57906 -20.09506,-39.36586 -0.21321,0.2132 -6.14496,12.38194 -13.18167,27.04163 l -12.79403,26.65399 18.09106,0.14917 18.09107,0.14918 -0.36354,3.54839 c -1.64525,16.05859 -11.84838,29.62554 -26.87078,35.72969 -6.9967,2.84301 -10.51196,3.07894 -45.87578,3.07894 h -32.69469 z"
     id="path3737"
     inkscape:connector-curvature="0" />
  <path
     style="opacity:0;fill:#de8787;stroke-width:0.56497175"
     d="m 185.40866,107.64513 47.81106,-95.620793 47.63825,95.197063 c 26.20104,52.35839 47.65231,95.41617 47.66949,95.68397 0.0172,0.2678 -6.26113,0.36609 -13.95181,0.21842 -11.7433,-0.22548 -14.66678,-0.45363 -18.25164,-1.42437 -8.5979,-2.32821 -16.48654,-7.10352 -20.93554,-12.6731 -1.56741,-1.9622 -9.17318,-16.67486 -22.09746,-42.74552 -10.83908,-21.86443 -19.88186,-39.57906 -20.09506,-39.36586 -0.21321,0.2132 -6.14496,12.38194 -13.18167,27.04163 l -12.79403,26.65399 18.09106,0.14917 18.09107,0.14918 -0.36354,3.54839 c -1.64525,16.05859 -11.84838,29.62554 -26.87078,35.72969 -6.9967,2.84301 -10.51196,3.07894 -45.87578,3.07894 h -32.69469 z"
     id="path3739"
     inkscape:connector-curvature="0" />
  <path
     style="opacity:0;fill:#de8787;stroke-width:0.56497175"
     d="m 185.40866,107.64513 47.81106,-95.620793 47.63825,95.197063 c 26.20104,52.35839 47.65231,95.41617 47.66949,95.68397 0.0172,0.2678 -6.26113,0.36609 -13.95181,0.21842 -11.7433,-0.22548 -14.66678,-0.45363 -18.25164,-1.42437 -8.5979,-2.32821 -16.48654,-7.10352 -20.93554,-12.6731 -1.56741,-1.9622 -9.17318,-16.67486 -22.09746,-42.74552 -10.83908,-21.86443 -19.88186,-39.57906 -20.09506,-39.36586 -0.21321,0.2132 -6.14496,12.38194 -13.18167,27.04163 l -12.79403,26.65399 18.09106,0.14917 18.09107,0.14918 -0.36354,3.54839 c -1.64525,16.05859 -11.84838,29.62554 -26.87078,35.72969 -6.9967,2.84301 -10.51196,3.07894 -45.87578,3.07894 h -32.69469 z"
     id="path3741"
     inkscape:connector-curvature="0" />
  <path
     style="opacity:0;fill:#de8787;stroke-width:0.56497175"
     d="m 185.40866,107.64513 47.81106,-95.620793 47.63825,95.197063 c 26.20104,52.35839 47.65231,95.41617 47.66949,95.68397 0.0172,0.2678 -6.26113,0.36609 -13.95181,0.21842 -11.7433,-0.22548 -14.66678,-0.45363 -18.25164,-1.42437 -8.5979,-2.32821 -16.48654,-7.10352 -20.93554,-12.6731 -1.56741,-1.9622 -9.17318,-16.67486 -22.09746,-42.74552 -10.83908,-21.86443 -19.88186,-39.57906 -20.09506,-39.36586 -0.21321,0.2132 -6.14496,12.38194 -13.18167,27.04163 l -12.79403,26.65399 18.09106,0.14917 18.09107,0.14918 -0.36354,3.54839 c -1.64525,16.05859 -11.84838,29.62554 -26.87078,35.72969 -6.9967,2.84301 -10.51196,3.07894 -45.87578,3.07894 h -32.69469 z"
     id="path3743"
     inkscape:connector-curvature="0" />
  <path
     style="opacity:0;fill:#de8787;stroke-width:0.56497175"
     d="m 188.50885,120.76775 47.81106,-95.620794 47.63825,95.197064 c 26.20104,52.35839 47.65231,95.41617 47.66949,95.68397 0.0172,0.2678 -6.26113,0.36608 -13.95181,0.21842 -11.7433,-0.22548 -14.66678,-0.45363 -18.25164,-1.42437 -8.5979,-2.32821 -16.48654,-7.10352 -20.93554,-12.6731 -1.56741,-1.9622 -9.17318,-16.67486 -22.09746,-42.74552 -10.83908,-21.86443 -19.88186,-39.57907 -20.09506,-39.36586 -0.21321,0.2132 -6.14496,12.38194 -13.18167,27.04163 l -12.79403,26.65399 18.09106,0.14917 18.09107,0.14918 -0.36354,3.54839 c -1.64525,16.05858 -11.84838,29.62554 -26.87078,35.72969 -6.99671,2.84301 -10.51196,3.07894 -45.87578,3.07894 h -32.69469 z"
     id="path3745"
     inkscape:connector-curvature="0" />
  <path
     style="opacity:0;fill:#de8787;stroke-width:0.56497175"
     d="m 188.50885,120.76775 47.81106,-95.620794 47.63825,95.197064 c 26.20104,52.35839 47.65231,95.41617 47.66949,95.68397 0.0172,0.2678 -6.26113,0.36608 -13.95181,0.21842 -11.7433,-0.22548 -14.66678,-0.45363 -18.25164,-1.42437 -8.5979,-2.32821 -16.48654,-7.10352 -20.93554,-12.6731 -1.56741,-1.9622 -9.17318,-16.67486 -22.09746,-42.74552 -10.83908,-21.86443 -19.88186,-39.57907 -20.09506,-39.36586 -0.21321,0.2132 -6.14496,12.38194 -13.18167,27.04163 l -12.79403,26.65399 18.09106,0.14917 18.09107,0.14918 -0.36354,3.54839 c -1.64525,16.05858 -11.84838,29.62554 -26.87078,35.72969 -6.99671,2.84301 -10.51196,3.07894 -45.87578,3.07894 h -32.69469 z"
     id="path3747"
     inkscape:connector-curvature="0" />
  <path
     style="opacity:0;fill:#de8787;stroke-width:0.56497175"
     d="m 188.50885,120.76775 47.81106,-95.620794 47.63825,95.197064 c 26.20104,52.35839 47.65231,95.41617 47.66949,95.68397 0.0172,0.2678 -6.26113,0.36608 -13.95181,0.21842 -11.7433,-0.22548 -14.66678,-0.45363 -18.25164,-1.42437 -8.5979,-2.32821 -16.48654,-7.10352 -20.93554,-12.6731 -1.56741,-1.9622 -9.17318,-16.67486 -22.09746,-42.74552 -10.83908,-21.86443 -19.88186,-39.57907 -20.09506,-39.36586 -0.21321,0.2132 -6.14496,12.38194 -13.18167,27.04163 l -12.79403,26.65399 18.09106,0.14917 18.09107,0.14918 -0.36354,3.54839 c -1.64525,16.05858 -11.84838,29.62554 -26.87078,35.72969 -6.99671,2.84301 -10.51196,3.07894 -45.87578,3.07894 h -32.69469 z"
     id="path3749"
     inkscape:connector-curvature="0" />
  <path
     style="opacity:0;fill:#de8787;stroke-width:0.56497175"
     d="m 188.50885,120.76775 47.81106,-95.620794 47.63825,95.197064 c 26.20104,52.35839 47.65231,95.41617 47.66949,95.68397 0.0172,0.2678 -6.26113,0.36608 -13.95181,0.21842 -11.7433,-0.22548 -14.66678,-0.45363 -18.25164,-1.42437 -8.5979,-2.32821 -16.48654,-7.10352 -20.93554,-12.6731 -1.56741,-1.9622 -9.17318,-16.67486 -22.09746,-42.74552 -10.83908,-21.86443 -19.88186,-39.57907 -20.09506,-39.36586 -0.21321,0.2132 -6.14496,12.38194 -13.18167,27.04163 l -12.79403,26.65399 18.09106,0.14917 18.09107,0.14918 -0.36354,3.54839 c -1.64525,16.05858 -11.84838,29.62554 -26.87078,35.72969 -6.99671,2.84301 -10.51196,3.07894 -45.87578,3.07894 h -32.69469 z"
     id="path3751"
     inkscape:connector-curvature="0" />
  <path
     style="opacity:0;fill:#de8787;stroke-width:0.56497175"
     d="m 188.50885,120.76775 47.81106,-95.620794 47.63825,95.197064 c 26.20104,52.35839 47.65231,95.41617 47.66949,95.68397 0.0172,0.2678 -6.26113,0.36608 -13.95181,0.21842 -11.7433,-0.22548 -14.66678,-0.45363 -18.25164,-1.42437 -8.5979,-2.32821 -16.48654,-7.10352 -20.93554,-12.6731 -1.56741,-1.9622 -9.17318,-16.67486 -22.09746,-42.74552 -10.83908,-21.86443 -19.88186,-39.57907 -20.09506,-39.36586 -0.21321,0.2132 -6.14496,12.38194 -13.18167,27.04163 l -12.79403,26.65399 18.09106,0.14917 18.09107,0.14918 -0.36354,3.54839 c -1.64525,16.05858 -11.84838,29.62554 -26.87078,35.72969 -6.99671,2.84301 -10.51196,3.07894 -45.87578,3.07894 h -32.69469 z"
     id="path3753"
     inkscape:connector-curvature="0" />
  <path
     style="opacity:0;fill:#ff0000;stroke-width:0.56497175"
     d="m 164.78003,157.49091 47.81107,-95.620792 47.63825,95.197062 c 26.20104,52.35839 47.65231,95.41618 47.66949,95.68397 0.0172,0.2678 -6.26113,0.36609 -13.95181,0.21842 -11.7433,-0.22547 -14.66678,-0.45363 -18.25165,-1.42437 -8.59789,-2.32821 -16.48654,-7.10352 -20.93554,-12.6731 -1.5674,-1.9622 -9.17317,-16.67486 -22.09745,-42.74552 -10.83908,-21.86442 -19.88186,-39.57906 -20.09507,-39.36586 -0.2132,0.2132 -6.14495,12.38194 -13.18167,27.04163 l -12.79403,26.654 18.09107,0.14917 18.09107,0.14917 -0.36354,3.5484 c -1.64525,16.05858 -11.84839,29.62553 -26.87079,35.72968 -6.9967,2.84301 -10.51196,3.07894 -45.87577,3.07894 h -32.69469 z"
     id="path3761"
     inkscape:connector-curvature="0" />
  <path
     style="opacity:0;vector-effect:none;fill:#dbe3de;fill-opacity:1;stroke-width:0.31919307;stroke-linecap:butt;stroke-linejoin:miter;stroke-miterlimit:4;stroke-dasharray:none;stroke-dashoffset:0;stroke-opacity:1"
     d="m 164.81564,157.53157 c 26.33635,-52.6738 47.92733,-95.720874 47.97996,-95.660168 0.0526,0.0607 21.62434,43.175358 47.93715,95.810328 l 47.84146,95.69996 -14.02263,-0.3077 c -11.79048,-0.25871 -14.7421,-0.49746 -18.5424,-1.4999 -8.68347,-2.29049 -17.10837,-7.34892 -21.38747,-12.84133 -1.14435,-1.46883 -10.9796,-20.59162 -21.85608,-42.49509 -11.78593,-23.73493 -19.97898,-39.61262 -20.27924,-39.30008 -0.27709,0.28842 -6.22925,12.47356 -13.22701,27.07808 l -12.72321,26.55367 18.11366,0.14916 18.11367,0.14917 -0.38744,3.52315 c -1.62817,14.80527 -9.90318,26.93559 -23.04105,33.77578 -2.39679,1.24787 -6.33746,2.81857 -8.75706,3.49045 -4.2451,1.17877 -5.61273,1.22901 -39.02293,1.43333 l -34.62365,0.21174 z"
     id="path3763"
     inkscape:connector-curvature="0" />
  <path
     style="opacity:0;vector-effect:none;fill:#ff0000;fill-opacity:1;stroke-width:0.31919307;stroke-linecap:butt;stroke-linejoin:miter;stroke-miterlimit:4;stroke-dasharray:none;stroke-dashoffset:0;stroke-opacity:1"
     d="m 164.78003,157.49091 47.81107,-95.620792 47.63825,95.197062 c 26.20104,52.35839 47.65231,95.41618 47.66949,95.68397 0.0172,0.2678 -6.26113,0.36609 -13.95181,0.21842 -11.7433,-0.22547 -14.66678,-0.45363 -18.25165,-1.42437 -8.59789,-2.32821 -16.48654,-7.10352 -20.93554,-12.6731 -1.5674,-1.9622 -9.17317,-16.67486 -22.09745,-42.74552 -10.83908,-21.86442 -19.88186,-39.57906 -20.09507,-39.36586 -0.2132,0.2132 -6.14495,12.38194 -13.18167,27.04163 l -12.79403,26.654 18.09107,0.14917 18.09107,0.14917 -0.36354,3.5484 c -1.64525,16.05858 -11.84839,29.62553 -26.87079,35.72968 -6.9967,2.84301 -10.51196,3.07894 -45.87577,3.07894 h -32.69469 z"
     id="path3765"
     inkscape:connector-curvature="0" />
  <path
     style="opacity:0;vector-effect:none;fill:#ff0000;fill-opacity:1;stroke-width:0.18033506;stroke-linecap:butt;stroke-linejoin:miter;stroke-miterlimit:4;stroke-dasharray:none;stroke-dashoffset:0;stroke-opacity:1"
     d="m 164.78003,157.49091 47.81107,-95.620792 47.63825,95.197062 c 26.20104,52.35839 47.65231,95.41618 47.66949,95.68397 0.0172,0.2678 -6.26113,0.36609 -13.95181,0.21842 -11.7433,-0.22547 -14.66678,-0.45363 -18.25165,-1.42437 -8.59789,-2.32821 -16.48654,-7.10352 -20.93554,-12.6731 -1.5674,-1.9622 -9.17317,-16.67486 -22.09745,-42.74552 -10.83908,-21.86442 -19.88186,-39.57906 -20.09507,-39.36586 -0.2132,0.2132 -6.14495,12.38194 -13.18167,27.04163 l -12.79403,26.654 18.09107,0.14917 18.09107,0.14917 -0.36354,3.5484 c -1.64525,16.05858 -11.84839,29.62553 -26.87079,35.72968 -6.9967,2.84301 -10.51196,3.07894 -45.87577,3.07894 h -32.69469 z"
     id="path3767"
     inkscape:connector-curvature="0" />
  <path
     style="opacity:0;vector-effect:none;fill:#ff0000;fill-opacity:1;stroke-width:0.18033506;stroke-linecap:butt;stroke-linejoin:miter;stroke-miterlimit:4;stroke-dasharray:none;stroke-dashoffset:0;stroke-opacity:1"
     d="m 164.78003,157.49091 47.81107,-95.620792 47.63825,95.197062 c 26.20104,52.35839 47.65231,95.41618 47.66949,95.68397 0.0172,0.2678 -6.26113,0.36609 -13.95181,0.21842 -11.7433,-0.22547 -14.66678,-0.45363 -18.25165,-1.42437 -8.59789,-2.32821 -16.48654,-7.10352 -20.93554,-12.6731 -1.5674,-1.9622 -9.17317,-16.67486 -22.09745,-42.74552 -10.83908,-21.86442 -19.88186,-39.57906 -20.09507,-39.36586 -0.2132,0.2132 -6.14495,12.38194 -13.18167,27.04163 l -12.79403,26.654 18.09107,0.14917 18.09107,0.14917 -0.36354,3.5484 c -1.64525,16.05858 -11.84839,29.62553 -26.87079,35.72968 -6.9967,2.84301 -10.51196,3.07894 -45.87577,3.07894 h -32.69469 z"
     id="path3769"
     inkscape:connector-curvature="0" />
  <path
     style="opacity:0;vector-effect:none;fill:#ff0000;fill-opacity:1;stroke-width:0.18033506;stroke-linecap:butt;stroke-linejoin:miter;stroke-miterlimit:4;stroke-dasharray:none;stroke-dashoffset:0;stroke-opacity:1"
     d="M 42.822734,210.57833 C 29.909413,208.29873 17.454724,198.4019 8.0979107,182.98504 6.514278,180.37575 3.5928035,174.65999 1.6057358,170.28335 c -1.98706207,-4.37664 -4.1719733,-8.67948 -4.8553557,-9.56186 -0.8891831,-1.14812 -2.9069112,-2.23154 -7.0954891,-3.80994 -7.779017,-2.93139 -18.551882,-8.24759 -23.90823,-11.79826 -8.387918,-5.56026 -16.151601,-13.90665 -19.925768,-21.42131 -2.047961,-4.07764 -3.702856,-10.80779 -3.702856,-15.05881 0,-7.13364 3.504195,-16.524817 8.547657,-22.907568 1.339044,-1.694622 4.412764,-5.142096 6.830489,-7.661051 l 4.395865,-4.579909 0.01971,-7.284497 c 0.04017,-14.845606 2.457609,-21.458909 10.941667,-29.932728 8.345856,-8.335784 12.545768,-9.808623 29.229581,-10.250323 l 11.094909,-0.293736 4.947949,-4.994137 C 23.715797,15.0871 28.816283,11.443731 34.871187,8.7677323 38.992604,6.9462472 39.051418,6.9382544 48.332723,6.9382544 c 9.293276,0 9.333672,0.00551 13.094711,1.7873432 14.070209,6.6659054 25.840536,20.8472594 34.376954,41.4187214 1.608536,3.876331 3.260265,7.527085 3.670508,8.112789 0.410243,0.585703 2.736334,1.885817 5.169094,2.889144 16.48153,6.797367 30.71776,17.122621 38.1061,27.637587 4.51864,6.430853 5.12812,8.727824 5.11695,19.284351 -0.0148,13.96933 -1.41378,17.22649 -12.21307,28.43467 l -5.80868,6.02861 -0.39546,8.19209 c -0.50552,10.47232 -1.43932,14.96526 -4.328,20.82406 -1.79662,3.64387 -3.32717,5.71181 -6.70185,9.05489 -7.38179,7.31266 -13.54681,9.71134 -27.931089,10.86739 l -7.975379,0.64097 -4.108909,3.74137 c -8.975446,8.1726 -14.855802,11.93926 -21.597304,13.83414 -4.087746,1.14897 -10.288316,1.54444 -13.984565,0.89195 z m 20.48174,-15.05359 c 4.250502,-1.31093 8.264039,-3.61487 8.068248,-4.63153 -0.09215,-0.47845 -1.309599,-1.31495 -2.705463,-1.85886 -1.395859,-0.54392 -5.843011,-2.26427 -9.882559,-3.82301 -8.75213,-3.37718 -18.193073,-8.1006 -26.29144,-13.15392 -6.838728,-4.26732 -8.454322,-4.93229 -8.454322,-3.47976 0,2.8564 7.938808,13.84937 14.274757,19.76645 8.366203,7.81311 15.91105,9.98098 24.990779,7.18063 z m 39.265536,-24.30257 c 9.63581,-2.69856 15.80006,-8.73961 18.17499,-17.8117 1.29605,-4.95084 0.66179,-4.89653 -13.09025,1.12075 -7.18441,3.14358 -7.706877,3.48065 -9.00134,5.80707 -1.734073,3.11651 -4.600734,11.32794 -4.18787,11.99597 0.360802,0.58378 3.670802,0.12959 8.10447,-1.11209 z m -16.197927,-0.12304 c 1.391344,-0.52899 3.883084,-4.8617 4.651079,-8.08744 0.356198,-1.49609 0.286796,-1.55367 -1.872559,-1.55367 -1.233356,0 -4.80056,0.52173 -7.927113,1.1594 -3.126559,0.63766 -7.290017,1.33682 -9.252135,1.55367 -4.849763,0.53599 -5.051181,1.68668 -0.640486,3.65908 3.219045,1.43951 10.833875,3.6959 12.699536,3.76307 0.523559,0.0189 1.577311,-0.2035 2.341678,-0.49411 z m -38.03936,-27.17574 c 17.355587,-0.78349 26.29727,-1.8809 37.38623,-4.58842 10.834892,-2.64549 12.563813,-3.4828 13.462593,-6.51987 0.365147,-1.23388 0.844204,-10.32295 1.125674,-21.35708 l 0.49,-19.209034 -3.209652,-4.205899 C 90.732422,79.060161 79.69514,67.828167 69.348586,59.305916 l -3.560401,-2.932635 -15.931123,0.01903 c -18.848305,0.02251 -27.158203,0.625374 -29.153417,2.115014 -1.630215,1.217133 -2.900673,4.726302 -4.820107,13.313833 -2.405068,10.760192 -3.216644,19.296101 -3.553729,37.376982 l -0.315994,16.94915 9.543638,9.17213 c 9.08205,8.72853 9.652931,9.17228 11.803519,9.17499 1.242938,0.002 7.980226,-0.2554 14.971751,-0.57101 z m -59.887004,-10.92395 c 0,-0.42624 -1.311154,-2.77793 -2.913676,-5.22599 -10.228018,-15.62462 -15.682363,-26.09648 -19.630125,-37.688063 -1.340875,-3.937141 -2.600958,-7.153994 -2.800184,-7.148565 -0.667442,0.01819 -4.505294,7.025678 -5.100071,9.312164 -1.066197,4.098757 -1.389135,11.239804 -0.648005,14.329184 1.438303,5.99551 7.787766,13.76683 15.460755,18.92292 5.075673,3.41075 13.813909,8.24902 14.925092,8.26388 0.388418,0.005 0.706214,-0.3393 0.706214,-0.76553 z m 123.728811,-3.60318 c 4.26026,-2.6888 5.64972,-4.06568 5.64972,-5.59861 0,-1.26894 -8.189,-17.9879 -9.9168,-20.24648 -0.69814,-0.91262 -0.95409,-0.97865 -1.34456,-0.34685 -0.81151,1.31306 -1.40918,25.9191 -0.66902,27.54358 0.77881,1.70929 1.76811,1.49638 6.28066,-1.35164 z m 16.832,-13.98343 c 9.87048,-14.91957 5.47353,-29.39455 -12.618,-41.539041 -4.84654,-3.25339 -13.12921,-7.895989 -14.08691,-7.895989 -0.58524,0 -0.27787,3.357113 0.78317,8.553627 0.59387,2.908497 1.26254,6.813604 1.48593,8.678011 0.46603,3.889452 1.52532,6.172068 7.64132,16.466005 2.42678,4.084557 5.68561,9.963767 7.24184,13.064927 3.07008,6.11785 4.22368,7.62297 5.64233,7.36169 0.50607,-0.0932 2.26571,-2.20336 3.91032,-4.68923 z M -9.6720564,90.130342 c 0.1703921,-0.699153 0.8410717,-4.576271 1.4903993,-8.615819 0.6493277,-4.039548 1.6815452,-9.462164 2.2938163,-12.05026 0.6122718,-2.58809 1.1132209,-4.812666 1.1132209,-4.943502 0,-1.091192 -10.2720511,2.689542 -11.9987851,4.416276 -0.904671,0.904673 -1.06591,1.602876 -0.806768,3.49352 0.716633,5.228412 5.830282,18.970971 7.059156,18.970971 0.296536,0 0.6785685,-0.572034 0.8489606,-1.271186 z M 97.187501,72.324619 c -1.09604,-5.222796 -2.490616,-7.744638 -5.137723,-9.290632 -2.009509,-1.173617 -10.50052,-3.444307 -11.855881,-3.170534 -0.606305,0.122469 2.124774,3.31294 8.336056,9.738251 6.991389,7.232294 9.287672,9.29913 9.442898,8.499344 0.112802,-0.58122 -0.240605,-3.18061 -0.78535,-5.776429 z M -10.34278,59.816653 -2.8119177,57.045336 0.33715958,49.788405 C 2.0691482,45.797092 4.5673346,40.407708 5.8886848,37.811994 c 1.3213446,-2.595713 2.2636496,-4.858273 2.0940112,-5.02791 -0.5747853,-0.574788 -8.24326521,0.997368 -11.7812583,2.41534 -5.8674009,2.351561 -8.8316927,4.989772 -11.4435397,10.184716 -1.251465,2.489156 -2.586211,5.87228 -2.966102,7.518055 -0.807014,3.49618 -0.920811,9.685775 -0.178074,9.685775 0.28195,0 3.901523,-1.247093 8.043498,-2.771317 z M 92.400094,55.949552 C 92.399857,55.716501 90.785122,52.220739 88.8118,48.181191 82.560173,35.383642 75.427908,27.304892 66.454411,22.856868 61.793937,20.546742 61.576123,20.498272 56.002434,20.530964 c -4.57544,0.02684 -6.219615,0.272641 -8.379813,1.252776 -5.828808,2.644674 -12.740762,8.291195 -12.122276,9.902941 0.169813,0.442521 2.935887,2.149036 6.146836,3.792255 3.210943,1.643218 10.287237,5.66009 15.725089,8.92638 5.437853,3.266289 11.331588,6.527609 13.097186,7.247377 2.944882,1.200516 14.384401,3.785282 19.106203,4.317057 1.087571,0.122484 2.168079,0.263386 2.40113,0.313114 0.233051,0.04973 0.423537,-0.100261 0.423305,-0.333312 z m -37.692309,-5.7372 C 55.733722,49.168713 53.780169,47.809053 44.759774,43.288615 33.92539,37.859123 31.491463,36.939856 30.370017,37.85377 c -1.392938,1.135168 -7.461022,10.751154 -7.461022,11.823351 0,0.529975 0.444915,1.096727 0.9887,1.25945 0.543786,0.162722 7.543921,0.223603 15.555853,0.135289 10.644282,-0.117329 14.75218,-0.348791 15.254237,-0.859508 z"
     id="path3771"
     inkscape:connector-curvature="0" />
  <path
     style="opacity:0;vector-effect:none;fill:#2c2ca0;fill-opacity:1;stroke-width:0.18033506;stroke-linecap:butt;stroke-linejoin:miter;stroke-miterlimit:4;stroke-dasharray:none;stroke-dashoffset:0;stroke-opacity:1"
     d="m 164.85793,157.61488 c 26.17883,-52.35875 47.72569,-95.197734 47.88192,-95.197734 0.15622,0 21.70309,42.838984 47.88191,95.197734 l 47.59786,95.19774 -13.41785,-0.004 c -11.44757,-0.003 -14.10792,-0.16938 -18.11723,-1.13055 -8.83861,-2.11891 -17.57305,-7.24038 -21.96191,-12.87746 -1.18375,-1.52041 -11.04913,-20.59987 -21.92306,-42.3988 -10.87393,-21.79893 -19.92063,-39.63442 -20.10377,-39.63442 -0.35633,0 -25.96534,53.10158 -25.95237,53.81355 0.005,0.23305 8.01619,0.42373 17.80433,0.42373 h 17.79661 v 2.73449 c 0,3.8829 -1.84725,10.60785 -4.24686,15.46084 -5.46557,11.05359 -16.15583,19.62447 -28.02652,22.47021 -4.46668,1.07078 -6.64267,1.13467 -38.7716,1.13841 l -34.03932,0.004 z"
     id="path3773"
     inkscape:connector-curvature="0" />
  <path
     style="opacity:0;vector-effect:none;fill:#5fbcd3;fill-opacity:1;stroke-width:0.18033506;stroke-linecap:butt;stroke-linejoin:miter;stroke-miterlimit:4;stroke-dasharray:none;stroke-dashoffset:0;stroke-opacity:1"
     d="m 164.85793,157.61488 c 26.17883,-52.35875 47.72569,-95.197734 47.88192,-95.197734 0.15622,0 21.70309,42.838984 47.88191,95.197734 l 47.59786,95.19774 -13.41785,-0.004 c -11.44757,-0.003 -14.10792,-0.16938 -18.11723,-1.13055 -8.83861,-2.11891 -17.57305,-7.24038 -21.96191,-12.87746 -1.18375,-1.52041 -11.04913,-20.59987 -21.92306,-42.3988 -10.87393,-21.79893 -19.92063,-39.63442 -20.10377,-39.63442 -0.35633,0 -25.96534,53.10158 -25.95237,53.81355 0.005,0.23305 8.01619,0.42373 17.80433,0.42373 h 17.79661 v 2.73449 c 0,3.8829 -1.84725,10.60785 -4.24686,15.46084 -5.46557,11.05359 -16.15583,19.62447 -28.02652,22.47021 -4.46668,1.07078 -6.64267,1.13467 -38.7716,1.13841 l -34.03932,0.004 z"
     id="path3775"
     inkscape:connector-curvature="0" />
  <path
     style="opacity:0;vector-effect:none;fill:#ff0000;fill-opacity:1;stroke-width:0.10188421;stroke-linecap:butt;stroke-linejoin:miter;stroke-miterlimit:4;stroke-dasharray:none;stroke-dashoffset:0;stroke-opacity:1"
     d="m 164.85793,157.61488 c 26.17883,-52.35875 47.72569,-95.197734 47.88192,-95.197734 0.15622,0 21.70309,42.838984 47.88191,95.197734 l 47.59786,95.19774 -13.41785,-0.004 c -11.44757,-0.003 -14.10792,-0.16938 -18.11723,-1.13055 -8.83861,-2.11891 -17.57305,-7.24038 -21.96191,-12.87746 -1.18375,-1.52041 -11.04913,-20.59987 -21.92306,-42.3988 -10.87393,-21.79893 -19.92063,-39.63442 -20.10377,-39.63442 -0.35633,0 -25.96534,53.10158 -25.95237,53.81355 0.005,0.23305 8.01619,0.42373 17.80433,0.42373 h 17.79661 v 2.73449 c 0,3.8829 -1.84725,10.60785 -4.24686,15.46084 -5.46557,11.05359 -16.15583,19.62447 -28.02652,22.47021 -4.46668,1.07078 -6.64267,1.13467 -38.7716,1.13841 l -34.03932,0.004 z"
     id="path3777"
     inkscape:connector-curvature="0" />
  <path
     style="opacity:0;vector-effect:none;fill:#ff0000;fill-opacity:1;stroke-width:0.10188421;stroke-linecap:butt;stroke-linejoin:miter;stroke-miterlimit:4;stroke-dasharray:none;stroke-dashoffset:0;stroke-opacity:1"
     d="m 164.85793,157.61488 c 26.17883,-52.35875 47.72569,-95.197734 47.88192,-95.197734 0.15622,0 21.70309,42.838984 47.88191,95.197734 l 47.59786,95.19774 -13.41785,-0.004 c -11.44757,-0.003 -14.10792,-0.16938 -18.11723,-1.13055 -8.83861,-2.11891 -17.57305,-7.24038 -21.96191,-12.87746 -1.18375,-1.52041 -11.04913,-20.59987 -21.92306,-42.3988 -10.87393,-21.79893 -19.92063,-39.63442 -20.10377,-39.63442 -0.35633,0 -25.96534,53.10158 -25.95237,53.81355 0.005,0.23305 8.01619,0.42373 17.80433,0.42373 h 17.79661 v 2.73449 c 0,3.8829 -1.84725,10.60785 -4.24686,15.46084 -5.46557,11.05359 -16.15583,19.62447 -28.02652,22.47021 -4.46668,1.07078 -6.64267,1.13467 -38.7716,1.13841 l -34.03932,0.004 z"
     id="path3779"
     inkscape:connector-curvature="0" />
  <path
     style="opacity:0;vector-effect:none;fill:#ff0000;fill-opacity:1;stroke-width:0.10188421;stroke-linecap:butt;stroke-linejoin:miter;stroke-miterlimit:4;stroke-dasharray:none;stroke-dashoffset:0;stroke-opacity:1"
     d="m 164.85793,157.61488 c 26.17883,-52.35875 47.72569,-95.197734 47.88192,-95.197734 0.15622,0 21.70309,42.838984 47.88191,95.197734 l 47.59786,95.19774 -13.41785,-0.004 c -11.44757,-0.003 -14.10792,-0.16938 -18.11723,-1.13055 -8.83861,-2.11891 -17.57305,-7.24038 -21.96191,-12.87746 -1.18375,-1.52041 -11.04913,-20.59987 -21.92306,-42.3988 -10.87393,-21.79893 -19.92063,-39.63442 -20.10377,-39.63442 -0.35633,0 -25.96534,53.10158 -25.95237,53.81355 0.005,0.23305 8.01619,0.42373 17.80433,0.42373 h 17.79661 v 2.73449 c 0,3.8829 -1.84725,10.60785 -4.24686,15.46084 -5.46557,11.05359 -16.15583,19.62447 -28.02652,22.47021 -4.46668,1.07078 -6.64267,1.13467 -38.7716,1.13841 l -34.03932,0.004 z"
     id="path3781"
     inkscape:connector-curvature="0" />
  <path
     style="opacity:0;vector-effect:none;fill:#5599ff;fill-opacity:1;stroke-width:0.10188421;stroke-linecap:butt;stroke-linejoin:miter;stroke-miterlimit:4;stroke-dasharray:none;stroke-dashoffset:0;stroke-opacity:1"
     d="m 143.38901,140.10076 c 26.17882,-52.358756 47.72568,-95.197737 47.88191,-95.197737 0.15623,0 21.70309,42.838981 47.88191,95.197737 l 47.59787,95.19774 -13.41786,-0.004 c -11.44757,-0.003 -14.10792,-0.16938 -18.11723,-1.13055 -8.8386,-2.11892 -17.57304,-7.24039 -21.96191,-12.87746 -1.18375,-1.52041 -11.04913,-20.59987 -21.92306,-42.39881 -10.87392,-21.79893 -19.92062,-39.63442 -20.10377,-39.63442 -0.35633,0 -25.96534,53.10159 -25.95237,53.81356 0.005,0.23305 8.01619,0.42373 17.80433,0.42373 h 17.79661 v 2.73448 c 0,3.88291 -1.84724,10.60786 -4.24686,15.46085 -5.46557,11.05358 -16.15582,19.62447 -28.02651,22.4702 -4.46669,1.07079 -6.64268,1.13468 -38.7716,1.13842 l -34.039327,0.004 z"
     id="path4588"
     inkscape:connector-curvature="0" />
  <path
     style="opacity:0;vector-effect:none;fill:#ff0000;fill-opacity:1;stroke:#5f8dd3;stroke-width:0.10188421;stroke-linecap:butt;stroke-linejoin:miter;stroke-miterlimit:4;stroke-dasharray:none;stroke-dashoffset:0;stroke-opacity:1"
     d="m 191.27148,44.903019 c -0.0195,0 -0.37404,0.669718 -1.0293,1.94336 -1.96576,3.820924 -6.64535,13.080542 -13.15429,26.021484 -8.6786,17.25459 -20.60981,41.053047 -33.69922,67.232427 l -47.597659,95.19726 34.039059,-0.004 c 12.04835,-0.001 19.88456,-0.01 25.20899,-0.0781 1.77481,-0.0228 3.27117,-0.0523 4.55078,-0.0898 2.55921,-0.0749 4.25376,-0.18338 5.58789,-0.33985 1.33414,-0.15663 2.30716,-0.36121 3.42383,-0.6289 1.48383,-0.35572 2.9496,-0.80177 4.38867,-1.33008 0.71896,-0.26394 1.4319,-0.54887 2.13672,-0.85352 0.22427,-0.0969 0.4433,-0.20762 0.66601,-0.30859 1.17822,-0.53415 2.33985,-1.11184 3.46875,-1.75391 0.67035,-0.38126 1.33211,-0.78201 1.98243,-1.19922 7.6e-4,-4.8e-4 0.001,-0.001 0.002,-0.002 3.2548,-2.08838 6.24677,-4.61637 8.85156,-7.48633 3.3e-4,-3.6e-4 -3.3e-4,-0.002 0,-0.002 2.60502,-2.87039 4.82326,-6.08091 6.53125,-9.53516 0.89961,-1.81936 1.72233,-3.90282 2.39844,-6 1.9e-4,-6e-4 -1.9e-4,-0.001 0,-0.002 1.12703,-3.49628 1.84765,-7.03217 1.84765,-9.45898 v -2.73438 h -17.79687 c -7.33986,0 -13.67968,-0.10786 -16.39453,-0.25977 -8.4e-4,-4e-5 -0.001,5e-5 -0.002,0 -0.0339,-0.002 -0.0454,-0.004 -0.0781,-0.006 -0.84162,-0.0491 -1.32692,-0.10213 -1.32812,-0.15821 -8.1e-4,-0.0445 0.0982,-0.29462 0.28515,-0.72265 2.05625,-4.70849 14.71973,-31.06213 21.45899,-44.78321 1.83806,-3.74205 3.23601,-6.54363 3.85742,-7.71093 5e-4,-9.5e-4 -5.1e-4,-0.001 0,-0.002 0.20713,-0.38911 0.32734,-0.5957 0.34961,-0.5957 0.0229,0 0.18457,0.27832 0.4707,0.80859 5.2e-4,9.6e-4 -5.1e-4,0.001 0,0.002 0.28611,0.53025 0.69721,1.31071 1.21875,2.3164 3.13083,6.03694 10.25773,20.15682 18.41406,36.50781 4.51719,9.0556 8.69332,17.28479 12.3125,24.3379 0.73693,1.43613 1.61096,3.16481 2.28321,4.46484 2.3e-4,4.5e-4 -2.4e-4,0.001 0,0.002 1.98645,3.84151 3.67052,7.04988 4.93164,9.39258 1.26159,2.34378 2.1005,3.82101 2.39648,4.20117 0.27431,0.35232 0.56583,0.7031 0.87305,1.05078 0.30721,0.3477 0.6307,0.69135 0.96875,1.03321 1.01443,1.02586 2.1611,2.0233 3.41601,2.97461 2.09083,1.58498 4.47609,3.04418 7.02735,4.30078 0.51022,0.25136 1.0264,0.49393 1.54883,0.72851 0.52298,0.2348 1.05084,0.46097 1.58398,0.67774 0.53257,0.21658 1.06874,0.42372 1.60938,0.62109 5.7e-4,2.1e-4 0.001,-2.1e-4 0.002,0 1.62134,0.59183 3.27499,1.09503 4.93164,1.49219 0.65004,0.15584 1.27026,0.28365 1.89258,0.40039 0.17986,0.0337 0.37636,0.0669 0.55859,0.0977 0.64118,0.10795 1.29637,0.20644 2.02539,0.28124 0.72069,0.074 1.54861,0.12678 2.44336,0.17383 0.27901,0.0147 0.5891,0.0306 0.89063,0.043 0.95177,0.0389 1.98021,0.0719 3.21093,0.0918 1.92187,0.031 4.23381,0.0403 7.09571,0.041 l 13.41796,0.004 -47.59765,-95.19726 c -19.63412,-39.26907 -36.66253,-73.182772 -44.01563,-87.685552 -2.45093,-4.834216 -3.82617,-7.511719 -3.86523,-7.511719 z"
     id="path4590"
     inkscape:connector-curvature="0" />
  <path
     style="opacity:0;vector-effect:none;fill:#ff0000;fill-opacity:1;stroke-width:0.10188421;stroke-linecap:butt;stroke-linejoin:miter;stroke-miterlimit:4;stroke-dasharray:none;stroke-dashoffset:0;stroke-opacity:1"
     d="m 143.38901,140.10076 c 26.17882,-52.358756 47.72568,-95.197737 47.88191,-95.197737 0.15623,0 21.70309,42.838981 47.88191,95.197737 l 47.59787,95.19774 -13.41786,-0.004 c -11.44757,-0.003 -14.10792,-0.16938 -18.11723,-1.13055 -8.8386,-2.11892 -17.57304,-7.24039 -21.96191,-12.87746 -1.18375,-1.52041 -11.04913,-20.59987 -21.92306,-42.39881 -10.87392,-21.79893 -19.92062,-39.63442 -20.10377,-39.63442 -0.35633,0 -25.96534,53.10159 -25.95237,53.81356 0.005,0.23305 8.01619,0.42373 17.80433,0.42373 h 17.79661 v 2.73448 c 0,3.88291 -1.84724,10.60786 -4.24686,15.46085 -5.46557,11.05358 -16.15582,19.62447 -28.02651,22.4702 -4.46669,1.07079 -6.64268,1.13468 -38.7716,1.13842 l -34.039327,0.004 z"
     id="path4598"
     inkscape:connector-curvature="0" />
  <path
     style="opacity:0;vector-effect:none;fill:#87aade;fill-opacity:1;stroke-width:0.10188421;stroke-linecap:butt;stroke-linejoin:miter;stroke-miterlimit:4;stroke-dasharray:none;stroke-dashoffset:0;stroke-opacity:1"
     d="M 36.597656 -29.849609 C 32.760027 -29.900639 28.899307 -29.587825 26.550781 -28.890625 C 19.391544 -26.765282 13.637887 -23.090886 6.25 -15.927734 L 0.8828125 -10.724609 L -9.8515625 -10.410156 C -21.698217 -10.063794 -25.648547 -9.358997 -31.076172 -6.6191406 C -35.486594 -4.3927673 -42.587369 2.4006963 -45.322266 7.0078125 C -48.963944 13.14246 -49.780223 16.644736 -50.107422 27.542969 L -50.396484 37.148438 L -54.939453 41.949219 C -61.492198 48.875185 -63.701646 51.829005 -66.136719 56.921875 C -69.992544 64.986191 -70.95594 72.094369 -69.203125 79.525391 C -65.275258 96.177504 -50.034105 109.70856 -23.412109 120.17383 L -16.066406 123.06055 L -10.416016 134.39062 C -4.2507895 146.75592 -3.2641571 148.47987 0.54492188 153.53125 C 8.4457578 164.00888 17.827778 170.89755 27.929688 173.63672 C 36.155812 175.86725 46.122165 174.03603 54.669922 168.72461 C 56.908357 167.33369 61.3606 163.82477 64.564453 160.92773 L 70.390625 155.66211 L 77.101562 155.24219 C 91.679105 154.33135 98.742268 151.66122 106.2832 144.21094 C 114.01748 136.56966 116.52331 129.49269 117.33398 113.00391 L 117.66016 106.375 L 123.96484 99.617188 C 134.68974 88.118927 135.83665 85.208342 135.52734 70.285156 L 135.33203 60.876953 L 133.42578 57.205078 C 127.72623 46.228898 116.39521 36.479203 99.751953 28.230469 C 95.712405 26.228384 91.413012 24.237639 90.197266 23.806641 C 87.638351 22.899473 86.671012 21.514928 84.130859 15.121094 C 75.2903 -7.1315169 61.004429 -23.738811 46.5 -28.625 C 44.248831 -29.383363 40.435286 -29.798579 36.597656 -29.849609 z M 44.234375 -16.130859 C 56.171608 -15.911761 67.863257 -5.9009514 76.611328 11.742188 C 78.618995 15.791255 80.261719 19.286235 80.261719 19.509766 C 80.261719 20.241991 76.872071 19.807427 68.113281 17.953125 C 59.540739 16.138253 56.599403 14.914982 47.339844 9.3125 C 42.918251 6.6372187 35.886697 2.6389314 31.714844 0.42773438 C 27.542997 -1.7834628 23.857239 -4.0459648 23.523438 -4.5996094 C 23.01302 -5.4461941 23.410121 -6.0538813 26.023438 -8.4199219 C 30.34786 -12.335165 37.151044 -15.612934 41.84375 -16.042969 C 42.64095 -16.116023 43.438559 -16.145466 44.234375 -16.130859 z M -4.7832031 -3.8027344 C -4.4638587 -3.8035657 -4.247103 -3.7646808 -4.1621094 -3.6796875 C -3.9898721 -3.5074451 -5.1800644 -0.73325089 -6.8066406 2.484375 C -8.4332168 5.7020008 -10.936115 11.130749 -12.367188 14.548828 L -14.96875 20.763672 L -19.189453 22.257812 C -21.511164 23.079484 -25.127151 24.401506 -27.224609 25.197266 L -31.039062 26.644531 L -31.039062 22.9375 C -31.039062 18.152455 -29.753268 13.252525 -27.240234 8.4589844 C -24.864204 3.9267767 -23.09619 2.3156489 -17.679688 -0.26367188 C -14.345914 -1.8512051 -7.018614 -3.7969152 -4.7832031 -3.8027344 z M 19.326172 1.6152344 C 19.521648 1.6076492 19.733368 1.6099545 19.970703 1.6171875 C 22.127635 1.6829214 41.139319 10.760261 42.464844 12.357422 C 43.000426 13.002708 43.001676 13.334192 42.46875 13.867188 C 41.980077 14.355924 37.46966 14.605847 26.566406 14.75 C 12.524367 14.935652 11.31627 14.87437 10.96875 13.96875 C 10.537349 12.844526 12.0319 9.8836217 15.537109 4.9179688 C 17.452573 2.2044367 17.957836 1.6683304 19.326172 1.6152344 z M 53.107422 19.748047 L 58.351562 24.013672 C 64.878731 29.323123 80.569351 45.284309 84.992188 51.113281 L 88.300781 55.472656 L 88.019531 74.841797 C 87.725153 95.149208 87.428582 97.712069 85.183594 99.294922 C 82.413543 101.24798 67.69609 104.81906 57.125 106.10352 C 53.536536 106.53955 45.261751 107.1554 38.736328 107.47266 C 32.210904 107.78991 25.066352 108.05059 22.859375 108.05078 L 18.845703 108.05078 L 9.4785156 99.152344 L 0.109375 90.255859 L 0.072265625 77.201172 C 0.029943595 62.435545 0.66554816 52.691309 2.3222656 42.732422 C 3.821096 33.722631 6.470746 23.964802 7.7695312 22.666016 C 9.545243 20.890308 13.811143 20.4696 33.775391 20.103516 L 53.107422 19.748047 z M 67.082031 23.175781 L 69.576172 23.591797 C 73.440262 24.235989 79.256766 26.148182 80.898438 27.314453 C 82.842313 28.695408 84.020417 31.275047 85.107422 36.53125 C 85.59536 38.890668 85.906832 41.264939 85.800781 41.808594 C 85.661611 42.522029 83.382452 40.516261 77.611328 34.597656 C 73.213622 30.087566 69.046518 25.673082 68.349609 24.787109 L 67.082031 23.175781 z M -17.714844 27.931641 C -16.954602 27.832482 -16.93482 28.149677 -17.134766 28.814453 C -17.815903 31.079092 -19.222185 38.165205 -20.302734 44.775391 C -20.93767 48.659572 -21.600006 52.536105 -21.773438 53.390625 C -22.358537 56.273495 -23.421968 55.277087 -25.544922 49.859375 C -27.888657 43.878234 -29.382647 39.012729 -29.724609 36.244141 C -30.142493 32.860864 -29.075648 31.838759 -22.736328 29.544922 C -19.976317 28.546233 -18.475085 28.0308 -17.714844 27.931641 z M 90.214844 30.109375 C 91.250714 30.02621 93.435568 30.967056 96.951172 32.972656 C 115.77845 43.713334 123.83486 55.011282 121.67188 67.638672 C 120.99113 71.612852 117.77365 78.586352 115.15625 81.761719 C 112.14606 85.413594 111.21964 84.616075 105.71289 73.642578 C 104.1164 70.4612 101.03542 64.959907 98.867188 61.417969 C 94.222482 53.830568 92.90415 50.935397 92.410156 47.228516 C 92.083302 44.775867 90.254621 34.617699 89.552734 31.357422 C 89.38497 30.578155 89.593322 30.159274 90.214844 30.109375 z M -48.734375 46.480469 C -48.612829 46.522635 -48.552734 46.710157 -48.552734 47.042969 C -48.552734 47.358681 -47.380156 50.855613 -45.947266 54.8125 C -41.62004 66.762008 -38.011605 73.65401 -27.183594 90.646484 C -25.264467 93.65819 -23.693359 96.39006 -23.693359 96.71875 C -23.693359 97.904501 -25.758646 97.265781 -30.480469 94.617188 C -42.144808 88.074352 -49.24106 81.822793 -53.072266 74.714844 C -55.001235 71.136081 -55.048232 70.8945 -55.007812 64.832031 C -54.959781 57.627568 -54.30091 54.877726 -51.458984 50.015625 C -50.009221 47.535298 -49.099014 46.35397 -48.734375 46.480469 z M 171.78711 47.599609 C 171.76758 47.599609 171.41307 48.269327 170.75781 49.542969 C 168.79205 53.363893 164.11246 62.623511 157.60352 75.564453 C 148.92492 92.819043 136.99371 116.6175 123.9043 142.79688 L 76.306641 237.99414 L 110.3457 237.99023 C 117.34882 237.98942 122.61849 237.98274 127.10938 237.9668 C 130.26761 237.95501 133.36466 237.94018 135.55469 237.91211 C 137.3295 237.88936 138.82586 237.85984 140.10547 237.82227 C 142.66468 237.74733 144.35923 237.63889 145.69336 237.48242 C 147.0275 237.32579 148.00052 237.12121 149.11719 236.85352 C 150.60102 236.4978 152.06679 236.05175 153.50586 235.52344 C 154.22482 235.2595 154.93776 234.97457 155.64258 234.66992 C 155.76165 234.61845 155.87864 234.56156 155.99609 234.50586 C 156.10095 234.45937 156.20409 234.4087 156.30859 234.36133 C 156.33298 234.35027 156.35649 234.33727 156.38086 234.32617 C 156.9279 234.07692 157.47287 233.82373 158.00977 233.55078 C 158.60586 233.25162 159.19639 232.93784 159.77734 232.60742 C 160.44769 232.22616 161.10945 231.82541 161.75977 231.4082 L 161.76172 231.40625 C 162.50016 230.93245 163.2198 230.43008 163.92969 229.91211 C 164.17385 229.73399 164.41178 229.54839 164.65234 229.36523 C 165.12038 229.00882 165.58142 228.64451 166.03516 228.26953 C 166.29494 228.0549 166.55177 227.83773 166.80664 227.61719 C 167.25233 227.23144 167.6872 226.8349 168.11719 226.43164 C 168.33739 226.22519 168.56143 226.02341 168.77734 225.8125 C 169.35821 225.24495 169.92634 224.663 170.47461 224.06445 C 170.51967 224.01526 170.56845 223.96932 170.61328 223.91992 L 170.61328 223.91797 C 171.21021 223.26023 171.78112 222.58107 172.33594 221.88867 C 172.50599 221.67648 172.66611 221.45748 172.83203 221.24219 C 173.20976 220.75196 173.57803 220.25576 173.93359 219.75 C 174.20088 219.36989 174.4684 218.99005 174.72266 218.60156 C 174.78626 218.50436 174.85129 218.40826 174.91406 218.31055 C 175.27757 217.74481 175.62609 217.17018 175.96094 216.58789 C 176.03203 216.46423 176.10016 216.33922 176.16992 216.21484 C 176.50866 215.61109 176.83796 215.00282 177.14453 214.38281 C 177.4194 213.82693 177.68484 213.24063 177.94336 212.64258 C 178.00914 212.49038 178.07216 212.33599 178.13672 212.18164 C 178.3322 211.71441 178.52004 211.24042 178.70312 210.75781 C 178.76333 210.59909 178.82408 210.44312 178.88281 210.2832 C 179.11378 209.65453 179.3372 209.02108 179.54297 208.38281 L 179.54297 208.38086 C 179.80255 207.57557 180.03339 206.77406 180.24609 205.97852 C 180.30804 205.74684 180.35847 205.52423 180.41602 205.29492 C 180.55656 204.73508 180.6845 204.18708 180.79688 203.64844 C 180.85029 203.39235 180.89872 203.14414 180.94531 202.89453 C 181.04321 202.37047 181.12173 201.87094 181.1875 201.38281 C 181.2198 201.14309 181.2611 200.89527 181.28516 200.66602 C 181.29725 200.55084 181.30645 200.44043 181.31641 200.32812 C 181.3604 199.83173 181.39062 199.35433 181.39062 198.92188 L 181.39062 196.1875 L 163.59375 196.1875 C 160.33448 196.1875 157.4085 196.16 154.77344 196.12305 C 153.74802 196.10865 152.7178 196.09499 151.83594 196.07617 C 151.45349 196.06796 151.04889 196.05974 150.69727 196.05078 C 149.27683 196.01472 148.04162 195.97379 147.21484 195.92773 C 147.17666 195.92561 147.1559 195.92402 147.11914 195.92188 C 147.06288 195.91859 147.04132 195.91543 146.98828 195.91211 C 146.65245 195.89104 146.34017 195.86819 146.14844 195.8457 C 145.91739 195.81861 145.79163 195.79232 145.79102 195.76367 C 145.79021 195.71917 145.88923 195.46905 146.07617 195.04102 C 146.54853 193.95939 147.69252 191.50916 149.08398 188.55859 C 149.24694 188.21301 149.34306 188.00563 149.51562 187.64062 C 149.90462 186.81796 150.4645 185.65142 150.89648 184.74219 C 152.8213 180.69103 155.07467 175.98196 157.45312 171.04102 C 158.20931 169.4703 158.95295 167.93064 159.71094 166.36133 C 162.53384 160.51776 165.38238 154.64057 167.53516 150.25781 C 168.62989 148.02907 169.49577 146.29015 170.20703 144.875 C 170.6871 143.9203 171.14236 143.01691 171.39258 142.54688 L 171.39258 142.54492 C 171.59971 142.15581 171.71992 141.94922 171.74219 141.94922 C 171.76508 141.94922 171.92676 142.22754 172.21289 142.75781 L 172.21289 142.75977 C 172.499 143.29002 172.9101 144.07048 173.43164 145.07617 C 173.48279 145.1748 173.59126 145.38926 173.64453 145.49219 C 175.03985 148.18737 177.31878 152.67498 179.93945 157.86133 C 180.58928 159.14734 181.262 160.48193 181.96875 161.88477 C 184.93035 167.76392 188.21406 174.30364 191.8457 181.58398 C 194.22283 186.34941 196.48581 190.84677 198.64258 195.10352 C 200.64635 199.06545 202.4259 202.54575 204.1582 205.92188 C 204.89513 207.35801 205.76916 209.08669 206.44141 210.38672 L 206.44141 210.38867 C 208.42786 214.23018 210.11193 217.43855 211.37305 219.78125 C 212.63464 222.12503 213.47355 223.60226 213.76953 223.98242 C 214.04384 224.33474 214.33536 224.68552 214.64258 225.0332 C 214.94979 225.3809 215.27328 225.72455 215.61133 226.06641 C 216.07011 226.53036 216.56311 226.98696 217.07422 227.4375 C 217.18391 227.53431 217.29429 227.63046 217.40625 227.72656 C 217.92612 228.1723 218.46174 228.61225 219.02734 229.04102 C 219.50348 229.40195 219.99871 229.75461 220.50391 230.10156 C 220.6735 230.21805 220.84885 230.33053 221.02148 230.44531 C 221.36542 230.67394 221.71302 230.89966 222.06836 231.12109 C 222.27757 231.25151 222.48826 231.38004 222.70117 231.50781 C 223.03891 231.71044 223.38208 231.9079 223.72852 232.10352 C 223.93834 232.22202 224.14462 232.34318 224.35742 232.45898 C 224.91471 232.76221 225.47906 233.05828 226.05469 233.3418 C 226.56491 233.59316 227.08109 233.83573 227.60352 234.07031 C 228.1265 234.30511 228.65436 234.53128 229.1875 234.74805 C 229.72007 234.96463 230.25624 235.17177 230.79688 235.36914 L 230.79883 235.36914 C 231.51329 235.62992 232.23464 235.86507 232.95898 236.08984 C 233.15556 236.15087 233.35174 236.20933 233.54883 236.26758 C 234.27443 236.48194 235.00107 236.68647 235.73047 236.86133 C 236.37909 237.01682 236.99821 237.1432 237.61914 237.25977 C 237.6205 237.26002 237.62169 237.26146 237.62305 237.26172 C 237.80291 237.29541 237.99941 237.32865 238.18164 237.35938 C 238.82282 237.46733 239.47801 237.56582 240.20703 237.64062 C 240.92772 237.71458 241.75564 237.7674 242.65039 237.81445 C 242.82184 237.82347 243.00579 237.8317 243.18555 237.83984 C 243.30611 237.84561 243.42066 237.85247 243.54102 237.85742 C 243.55144 237.85785 243.56572 237.85893 243.57617 237.85938 C 244.51875 237.89754 245.53701 237.9296 246.75195 237.94922 C 248.67382 237.98026 250.98576 237.98948 253.84766 237.99023 L 267.26562 237.99414 L 219.66797 142.79688 C 207.73519 118.93081 197.7255 98.973316 189.30469 82.21875 C 183.733 71.132041 178.58857 60.902558 175.65234 55.111328 C 173.20131 50.277068 171.82617 47.599609 171.78711 47.599609 z M 94.53125 66.521484 C 95.390002 66.45948 97.960631 70.670492 101.76562 78.390625 C 106.34793 87.687873 106.41177 88.180282 103.33789 90.658203 C 101.98748 91.746807 99.71662 93.307884 98.291016 94.128906 C 93.095705 97.120946 92.996746 96.842685 93.486328 80.490234 C 93.706967 73.120777 94.11053 66.86511 94.382812 66.589844 C 94.4247 66.547498 94.474 66.525618 94.53125 66.521484 z M 108.02148 113.30273 C 108.50084 113.33287 108.71246 113.57377 108.86328 113.9668 C 109.44873 115.49247 107.30641 121.59118 104.94141 125.13281 C 102.09072 129.40173 97.653636 132.54306 91.910156 134.35742 C 86.440173 136.08539 82.803927 136.64913 82.308594 135.84766 C 81.893825 135.17655 84.2636 128.28393 86.294922 124.25195 C 87.318357 122.22054 88.199424 121.30931 89.755859 120.66992 C 90.904283 120.19814 94.95077 118.44372 98.748047 116.77148 C 104.61546 114.1876 106.9669 113.23644 108.02148 113.30273 z M 77.666016 125.03125 C 78.651971 125.03572 79.130859 125.20789 79.130859 125.54492 C 79.130859 126.97387 76.563947 132.70363 75.404297 133.86328 C 74.125422 135.14216 72.045853 135.44626 69.244141 134.76367 C 65.567752 133.86798 57.74187 131.10429 56.591797 130.29492 C 55.300927 129.38646 55.285821 129.30757 56.275391 128.58398 C 56.845753 128.16692 58.245906 127.82617 59.386719 127.82617 C 60.527538 127.82617 64.582207 127.1909 68.396484 126.41406 C 72.972797 125.48202 76.022756 125.0238 77.666016 125.03125 z M 77.050781 125.56836 C 76.175321 125.56955 72.280664 126.19842 68.396484 126.9668 C 64.512303 127.73518 60.296177 128.36995 59.027344 128.37695 C 54.006622 128.4057 55.870963 129.99473 64.089844 132.69141 C 72.902155 135.5828 74.97524 135.16469 77.058594 130.07812 C 78.794471 125.84 78.79464 125.56636 77.050781 125.56836 z M 12.394531 131.21484 C 12.666531 131.21484 16.289347 133.28705 20.445312 135.81836 C 30.253526 141.79233 40.674852 146.84494 50.876953 150.57227 C 56.690625 152.69629 59.119838 153.84681 59.253906 154.54297 C 59.492375 155.78125 52.587834 159.17769 48.121094 160.01953 C 44.672609 160.66949 43.123553 160.66697 39.783203 160.00586 C 34.468327 158.95396 26.776763 153.70365 21.755859 147.69922 C 14.960989 139.57332 10.214847 131.21484 12.394531 131.21484 z "
     id="path4600" />
  <path
     style="opacity:0;vector-effect:none;fill:#ff0000;fill-opacity:1;stroke-width:0.10188421;stroke-linecap:butt;stroke-linejoin:miter;stroke-miterlimit:4;stroke-dasharray:none;stroke-dashoffset:0;stroke-opacity:1"
     d="m 143.38901,140.10076 c 26.17882,-52.358756 47.72568,-95.197737 47.88191,-95.197737 0.15623,0 21.70309,42.838981 47.88191,95.197737 l 47.59787,95.19774 -13.41786,-0.004 c -11.44757,-0.003 -14.10792,-0.16938 -18.11723,-1.13055 -8.8386,-2.11892 -17.57304,-7.24039 -21.96191,-12.87746 -1.18375,-1.52041 -11.04913,-20.59987 -21.92306,-42.39881 -10.87392,-21.79893 -19.92062,-39.63442 -20.10377,-39.63442 -0.35633,0 -25.96534,53.10159 -25.95237,53.81356 0.005,0.23305 8.01619,0.42373 17.80433,0.42373 h 17.79661 v 2.73448 c 0,3.88291 -1.84724,10.60786 -4.24686,15.46085 -5.46557,11.05358 -16.15582,19.62447 -28.02651,22.4702 -4.46669,1.07079 -6.64268,1.13468 -38.7716,1.13842 l -34.039327,0.004 z"
     id="path4617"
     inkscape:connector-curvature="0" />
  <path
     style="opacity:0;vector-effect:none;fill:#ff0000;fill-opacity:1;stroke-width:0.10188421;stroke-linecap:butt;stroke-linejoin:miter;stroke-miterlimit:4;stroke-dasharray:none;stroke-dashoffset:0;stroke-opacity:1"
     d="m 143.38901,140.10076 c 26.17882,-52.358756 47.72568,-95.197737 47.88191,-95.197737 0.15623,0 21.70309,42.838981 47.88191,95.197737 l 47.59787,95.19774 -13.41786,-0.004 c -11.44757,-0.003 -14.10792,-0.16938 -18.11723,-1.13055 -8.8386,-2.11892 -17.57304,-7.24039 -21.96191,-12.87746 -1.18375,-1.52041 -11.04913,-20.59987 -21.92306,-42.39881 -10.87392,-21.79893 -19.92062,-39.63442 -20.10377,-39.63442 -0.35633,0 -25.96534,53.10159 -25.95237,53.81356 0.005,0.23305 8.01619,0.42373 17.80433,0.42373 h 17.79661 v 2.73448 c 0,3.88291 -1.84724,10.60786 -4.24686,15.46085 -5.46557,11.05358 -16.15582,19.62447 -28.02651,22.4702 -4.46669,1.07079 -6.64268,1.13468 -38.7716,1.13842 l -34.039327,0.004 z"
     id="path4619"
     inkscape:connector-curvature="0" />
  <path
     style="opacity:0;fill:#00112b;stroke:#5f8dd3;stroke-width:0.56497175"
     d="m 143.38901,140.10076 c 26.17882,-52.358756 47.72568,-95.197737 47.88191,-95.197737 0.15623,0 21.70309,42.838981 47.88191,95.197737 l 47.59787,95.19774 -13.41786,-0.004 c -11.44757,-0.003 -14.10792,-0.16938 -18.11723,-1.13055 -8.8386,-2.11892 -17.57304,-7.24039 -21.96191,-12.87746 -1.18375,-1.52041 -11.04913,-20.59987 -21.92306,-42.39881 -10.87392,-21.79893 -19.92062,-39.63442 -20.10377,-39.63442 -0.35633,0 -25.96534,53.10159 -25.95237,53.81356 0.005,0.23305 8.01619,0.42373 17.80433,0.42373 h 17.79661 v 2.73448 c 0,3.88291 -1.84724,10.60786 -4.24686,15.46085 -5.46557,11.05358 -16.15582,19.62447 -28.02651,22.4702 -4.46669,1.07079 -6.64268,1.13468 -38.7716,1.13842 l -34.039327,0.004 z"
     id="path4621"
     inkscape:connector-curvature="0" />
  <path
     style="opacity:0;fill:#00112b;stroke:#5f8dd3;stroke-width:0.56497175"
     d="m 143.38901,140.10076 c 26.17882,-52.358756 47.72568,-95.197737 47.88191,-95.197737 0.15623,0 21.70309,42.838981 47.88191,95.197737 l 47.59787,95.19774 -13.41786,-0.004 c -11.44757,-0.003 -14.10792,-0.16938 -18.11723,-1.13055 -8.8386,-2.11892 -17.57304,-7.24039 -21.96191,-12.87746 -1.18375,-1.52041 -11.04913,-20.59987 -21.92306,-42.39881 -10.87392,-21.79893 -19.92062,-39.63442 -20.10377,-39.63442 -0.35633,0 -25.96534,53.10159 -25.95237,53.81356 0.005,0.23305 8.01619,0.42373 17.80433,0.42373 h 17.79661 v 2.73448 c 0,3.88291 -1.84724,10.60786 -4.24686,15.46085 -5.46557,11.05358 -16.15582,19.62447 -28.02651,22.4702 -4.46669,1.07079 -6.64268,1.13468 -38.7716,1.13842 l -34.039327,0.004 z"
     id="path4623"
     inkscape:connector-curvature="0" />
  <path
     style="opacity:0;fill:#00112b;stroke:#5f8dd3;stroke-width:0.56497175"
     d="m 143.38901,140.10076 c 26.17882,-52.358756 47.72568,-95.197737 47.88191,-95.197737 0.15623,0 21.70309,42.838981 47.88191,95.197737 l 47.59787,95.19774 -13.41786,-0.004 c -11.44757,-0.003 -14.10792,-0.16938 -18.11723,-1.13055 -8.8386,-2.11892 -17.57304,-7.24039 -21.96191,-12.87746 -1.18375,-1.52041 -11.04913,-20.59987 -21.92306,-42.39881 -10.87392,-21.79893 -19.92062,-39.63442 -20.10377,-39.63442 -0.35633,0 -25.96534,53.10159 -25.95237,53.81356 0.005,0.23305 8.01619,0.42373 17.80433,0.42373 h 17.79661 v 2.73448 c 0,3.88291 -1.84724,10.60786 -4.24686,15.46085 -5.46557,11.05358 -16.15582,19.62447 -28.02651,22.4702 -4.46669,1.07079 -6.64268,1.13468 -38.7716,1.13842 l -34.039327,0.004 z"
     id="path4625"
     inkscape:connector-curvature="0" />
  <path
     style="opacity:0;fill:#00112b;stroke:#5f8dd3;stroke-width:0.56497175"
     d="m 143.38901,140.10076 c 26.17882,-52.358756 47.72568,-95.197737 47.88191,-95.197737 0.15623,0 21.70309,42.838981 47.88191,95.197737 l 47.59787,95.19774 -13.41786,-0.004 c -11.44757,-0.003 -14.10792,-0.16938 -18.11723,-1.13055 -8.8386,-2.11892 -17.57304,-7.24039 -21.96191,-12.87746 -1.18375,-1.52041 -11.04913,-20.59987 -21.92306,-42.39881 -10.87392,-21.79893 -19.92062,-39.63442 -20.10377,-39.63442 -0.35633,0 -25.96534,53.10159 -25.95237,53.81356 0.005,0.23305 8.01619,0.42373 17.80433,0.42373 h 17.79661 v 2.73448 c 0,3.88291 -1.84724,10.60786 -4.24686,15.46085 -5.46557,11.05358 -16.15582,19.62447 -28.02651,22.4702 -4.46669,1.07079 -6.64268,1.13468 -38.7716,1.13842 l -34.039327,0.004 z"
     id="path4627"
     inkscape:connector-curvature="0" />
  <path
     style="fill:#6772e5;fill-opacity:1;stroke:#6065e5;stroke-width:2.45;stroke-miterlimit:4;stroke-dasharray:none;stroke-opacity:1"
     d="m 206.69417,248.88219 c -15.04416,-5.32009 -27.71108,-19.41408 -36.44179,-40.54741 -2.08447,-5.04561 -4.57113,-9.41564 -5.52591,-9.71117 -8.69833,-2.69244 -21.39339,-8.49601 -28.18999,-12.8871 -28.03829,-18.11481 -33.06712,-43.86763 -12.7321,-65.20149 l 7.39097,-7.754 v -9.2581 c 0,-12.598892 3.05673,-20.528222 10.90955,-28.300052 7.85272,-7.77171 14.81739,-10.18342 29.47321,-10.20586 l 10.89998,-0.0167 5.7613,-6.02611 c 3.51394,-3.67545 8.72367,-7.46944 13.35561,-9.72622 6.54464,-3.18868 8.79631,-3.69674 16.29007,-3.67569 7.27462,0.0204 9.7934,0.57048 15.41242,3.36566 12.77797,6.35638 25.76202,22.85868 32.77366,41.65424 1.67503,4.49011 3.62047,8.16195 4.32321,8.15966 0.70273,-0.002 6.5778,2.600252 13.05569,5.783442 13.8,6.78121 25.72943,16.93662 31.03835,26.42269 3.12955,5.59189 3.43087,7.08629 3.42796,17.00127 -0.003,12.99496 -1.86121,17.30289 -11.99238,27.81428 l -6.50342,6.74751 -0.19472,9.32317 c -0.27197,13.02155 -3.52112,21.32393 -11.3034,28.88299 -7.18525,6.97915 -13.72459,9.53149 -26.65606,10.40406 l -9.24949,0.62412 -6.35903,6.0891 c -12.15122,11.63546 -26.09967,15.58681 -38.96369,11.03769 z m 26.36216,-14.14846 c 2.16158,-0.73353 5.13855,-2.10454 6.61549,-3.04669 2.61404,-1.66753 2.44516,-1.79385 -6.35902,-4.75628 -10.71494,-3.60539 -23.81501,-10.04336 -33.03529,-16.23505 -3.65642,-2.45541 -6.64806,-3.86891 -6.64806,-3.1411 0,2.9339 8.52876,14.9459 14.3512,20.21238 8.56211,7.74459 16.38158,9.91705 25.07568,6.96674 z m 44.71715,-26.36081 c 5.40544,-2.50376 9.613,-7.33336 11.65982,-13.38362 2.34927,-6.94431 1.85368,-7.08186 -8.39305,-2.32961 -5.3399,2.47654 -10.21289,4.50282 -10.82885,4.50282 -0.96199,0 -6.05454,11.93249 -6.05454,14.18654 0,1.29939 8.30494,-0.51578 13.61662,-2.97613 z m -18.81415,-2.06799 c 1.14994,-2.52378 1.78591,-4.89045 1.41327,-5.25923 -0.37263,-0.36878 -4.32881,0.15138 -8.79149,1.15593 -4.4627,1.00456 -9.44207,1.82645 -11.06528,1.82645 -5.20771,0 -3.16235,2.13934 4.2749,4.47127 10.60357,3.32474 11.73362,3.14971 14.1686,-2.19442 z m -10.411,-26.12816 c 5.72314,-1.23864 12.48682,-2.94602 15.03043,-3.79419 4.26668,-1.42272 4.68526,-1.94048 5.4062,-6.68683 0.42979,-2.82957 0.82,-12.56422 0.86714,-21.63251 l 0.0856,-16.48781 -4.46071,-5.82528 c -5.19672,-6.7865 -17.46209,-19.20808 -25.01315,-25.3318 l -5.26733,-4.271662 -17.60402,-0.064 c -9.68221,-0.0352 -20.01314,0.31678 -22.95762,0.78212 -5.34844,0.84526 -5.35535,0.85234 -7.18696,7.375992 -3.71688,13.23836 -5.38035,26.88846 -5.38035,44.14996 v 17.29572 l 9.42044,9.02757 9.42045,9.02757 18.61711,-0.65644 c 11.88933,-0.41921 22.37741,-1.47026 29.02275,-2.90848 z m -96.03076,-16.48392 c -7.62748,-11.19366 -13.43701,-22.51011 -17.11333,-33.33531 l -2.67459,-7.8755 -2.76847,4.43327 c -2.00853,3.21637 -2.86871,6.47751 -3.13364,11.88043 -0.32311,6.58957 0.0409,8.13494 3.16102,13.42006 2.03095,3.44017 6.09861,7.88543 9.59266,10.48313 6.04853,4.49687 16.50819,10.43409 18.38181,10.43409 0.54294,0 -1.90752,-4.24807 -5.44546,-9.44017 z m 130.05028,4.34598 c 2.59201,-1.6194 4.71274,-3.61892 4.71274,-4.44337 0,-2.50258 -10.7725,-23.20093 -11.11556,-21.35751 -0.17567,0.94402 -0.50704,8.04085 -0.73636,15.77073 -0.45998,15.50471 -0.81811,15.00154 7.13918,10.03015 z m 17.5292,-16.01843 c 6.55201,-11.30501 3.88875,-23.21796 -7.48638,-33.48725 -5.13894,-4.63935 -20.05749,-13.59286 -21.03568,-12.62477 -0.17072,0.16897 0.41336,3.64925 1.29796,7.73398 0.8846,4.08472 1.62663,8.82674 1.64897,10.5378 0.0223,1.71107 2.40876,6.73403 5.30313,11.16214 2.89439,4.42812 7.11979,11.92167 9.3898,16.65234 4.70929,9.81414 5.2085,9.81532 10.8822,0.0258 z M 163.49723,108.20918 c 0.64067,-2.29641 1.0489,-4.27181 0.90716,-4.38978 -0.14174,-0.11795 -2.9892,0.82315 -6.32769,2.09137 -4.78808,1.81887 -6.06998,2.83976 -6.06998,4.83411 0,2.60045 3.16596,12.36838 5.89376,18.18398 1.48448,3.16491 1.59164,2.9269 2.98581,-6.63083 0.79534,-5.45244 1.97026,-11.79243 2.61094,-14.08885 z m 103.45596,5.70831 c -1.7331,-9.57094 -3.09327,-11.23283 -10.75725,-13.14347 -3.88824,-0.969342 -7.06438,-1.691212 -7.05811,-1.604162 0.0225,0.31224 17.91695,18.920342 18.25093,18.978832 0.1878,0.0329 -0.007,-1.87116 -0.43557,-4.2312 z M 166.32837,96.467498 c 0.21704,0 1.32196,-2.44586 2.45537,-5.43525 1.1334,-2.98938 3.59003,-8.46889 5.45916,-12.17669 l 3.39843,-6.74145 -4.8301,0.76439 c -5.60443,0.88695 -12.43774,4.10534 -15.24905,7.18209 -3.35233,3.66886 -6.65971,12.18374 -6.68626,17.21383 l -0.0254,4.811832 7.54162,-2.809372 c 4.14788,-1.54516 7.71918,-2.80938 7.93623,-2.80938 z m 92.97173,-6.57951 c -10.23373,-23.03827 -27.19044,-34.50531 -41.98042,-28.38941 -4.76509,1.97045 -12.12829,7.59893 -12.12832,9.271 -3e-5,0.65572 2.9916,2.552 6.64803,4.21396 3.65644,1.66196 11.31512,6.01718 17.01927,9.67826 8.19924,5.26253 12.19433,7.04165 19.07707,8.49558 4.78826,1.01147 9.8473,1.91259 11.24233,2.00245 l 2.5364,0.16341 z m -34.65699,-1.07869 c -1.37095,-1.66171 -21.79452,-11.79424 -23.77299,-11.79424 -1.27748,0 -8.35991,10.84819 -8.38601,12.84489 -0.006,0.4566 7.4807,0.71405 16.63704,0.57214 12.72575,-0.19724 16.38263,-0.57956 15.52196,-1.62279 z"
     id="path3723-9"
     inkscape:connector-curvature="0"
     clip-path="url(#clipPath6236)"
     transform="translate(-98.54511,10.96949)" />
  <rect
     style="opacity:0;fill:#18151b;fill-opacity:0.99497483;stroke:#6065e5;stroke-width:2.45000005;stroke-miterlimit:4;stroke-dasharray:none;stroke-opacity:1"
     id="rect6200"
     width="105.64971"
     height="212.99434"
     x="216.38417"
     y="40.677963" />
  <rect
     style="opacity:0;fill:#18151b;fill-opacity:0.99497483;stroke:#6065e5;stroke-width:2.45000005;stroke-miterlimit:4;stroke-dasharray:none;stroke-opacity:1"
     id="rect6202"
     width="83.615822"
     height="197.74011"
     x="235.86855"
     y="37.981373"
     clip-path="none" />
  <rect
     style="opacity:0;fill:#18151b;fill-opacity:0.99497483;stroke:#6065e5;stroke-width:2.45000005;stroke-miterlimit:4;stroke-dasharray:none;stroke-opacity:1"
     id="rect6204"
     width="70.056496"
     height="123.72881"
     x="256.77249"
     y="61.145214" />
  <rect
     style="opacity:0;fill:#18151b;fill-opacity:0.99497483;stroke:#6065e5;stroke-width:2.45000005;stroke-miterlimit:4;stroke-dasharray:none;stroke-opacity:1"
     id="rect6214"
     width="105.87711"
     height="100.37722"
     x="134.51122"
     y="145.326" />
  <rect
     style="opacity:0;fill:#18151b;fill-opacity:0.99497483;stroke:#6065e5;stroke-width:2.45000005;stroke-miterlimit:4;stroke-dasharray:none;stroke-opacity:1"
     id="rect6220"
     width="136.61128"
     height="139.23964"
     x="127.50584"
     y="110.60614" />
</svg>
