<?xml version="1.0" encoding="UTF-8" standalone="no"?>
<!-- Created with Inkscape (http://www.inkscape.org/) -->

<svg
   xmlns:dc="http://purl.org/dc/elements/1.1/"
   xmlns:cc="http://creativecommons.org/ns#"
   xmlns:rdf="http://www.w3.org/1999/02/22-rdf-syntax-ns#"
   xmlns:svg="http://www.w3.org/2000/svg"
   xmlns="http://www.w3.org/2000/svg"
   xmlns:xlink="http://www.w3.org/1999/xlink"
   xmlns:sodipodi="http://sodipodi.sourceforge.net/DTD/sodipodi-0.dtd"
   xmlns:inkscape="http://www.inkscape.org/namespaces/inkscape"
   version="1.1"
   id="svg3713"
   width="266.66666"
   height="266.66666"
   viewBox="0 0 266.66666 266.66666"
   sodipodi:docname="blue.svg"
   inkscape:version="0.92.4 (5da689c313, 2019-01-14)"
   inkscape:export-filename="C:\Users\Prototipo\Desktop\Development\AsimovNET.git\trunk\argon-design-system-master\assets\img\brand\blue22.png"
   inkscape:export-xdpi="96"
   inkscape:export-ydpi="96">
  <metadata
     id="metadata3719">
    <rdf:RDF>
      <cc:Work
         rdf:about="">
        <dc:format>image/svg+xml</dc:format>
        <dc:type
           rdf:resource="http://purl.org/dc/dcmitype/StillImage" />
        <dc:title />
      </cc:Work>
    </rdf:RDF>
  </metadata>
  <defs
     id="defs3717">
    <linearGradient
       inkscape:collect="always"
       id="linearGradient4680">
      <stop
         style="stop-color:#5f8dd3;stop-opacity:1;"
         offset="0"
         id="stop4676" />
      <stop
         style="stop-color:#5f8dd3;stop-opacity:0;"
         offset="1"
         id="stop4678" />
    </linearGradient>
    <radialGradient
       inkscape:collect="always"
       xlink:href="#linearGradient4680"
       id="radialGradient4684"
       cx="131.6384"
       cy="110.21469"
       fx="131.6384"
       fy="110.21469"
       r="96.499992"
       gradientUnits="userSpaceOnUse" />
    <clipPath
       clipPathUnits="userSpaceOnUse"
       id="clipPath6230">
      <rect
         style="opacity:0;fill:#18151b;fill-opacity:0.99497483;stroke:#6065e5;stroke-width:2.45000005;stroke-miterlimit:4;stroke-dasharray:none;stroke-opacity:1"
         id="rect6232"
         width="167.23163"
         height="130.50847"
         x="110.16949"
         y="120.90395" />
    </clipPath>
    <clipPath
       clipPathUnits="userSpaceOnUse"
       id="clipPath6236">
      <rect
         style="opacity:0;fill:#18151b;fill-opacity:0.99497483;stroke:#6065e5;stroke-width:2.45000005;stroke-miterlimit:4;stroke-dasharray:none;stroke-opacity:1"
         id="rect6238"
         width="147.97298"
         height="130.96667"
         x="110.16949"
         y="120.90396" />
    </clipPath>
    <clipPath
       clipPathUnits="userSpaceOnUse"
       id="clipPath879">
      <rect
         style="stroke-width:12.30000019;stroke-miterlimit:4;stroke-dasharray:none"
         id="rect881"
         width="179.09604"
         height="159.32202"
         x="11.299435"
         y="110.73446" />
    </clipPath>
    <clipPath
       clipPathUnits="userSpaceOnUse"
       id="clipPath885">
      <rect
         style="stroke-width:12.30000019;stroke-miterlimit:4;stroke-dasharray:none"
         id="rect887"
         width="157.62711"
         height="171.18643"
         x="11.299435"
         y="110.73446" />
    </clipPath>
    <clipPath
       clipPathUnits="userSpaceOnUse"
       id="clipPath949">
      <ellipse
         style="stroke-width:11.85132122;stroke-miterlimit:4;stroke-dasharray:none"
         id="ellipse951"
         cx="73.728813"
         cy="205.36723"
         rx="103.67231"
         ry="95.197739" />
    </clipPath>
  </defs>
  <sodipodi:namedview
     pagecolor="#ffffff"
     bordercolor="#666666"
     borderopacity="1"
     objecttolerance="10"
     gridtolerance="10"
     guidetolerance="10"
     inkscape:pageopacity="0"
     inkscape:pageshadow="2"
     inkscape:window-width="1366"
     inkscape:window-height="706"
     id="namedview3715"
     showgrid="false"
     inkscape:zoom="1.7700001"
     inkscape:cx="135.21101"
     inkscape:cy="129.82882"
     inkscape:window-x="-8"
     inkscape:window-y="-8"
     inkscape:window-maximized="1"
     inkscape:current-layer="svg3713" />
  <path
     style="fill:#6772e5;fill-opacity:1;stroke:#6065e5;stroke-width:2.55209708;stroke-miterlimit:4;stroke-dasharray:none;stroke-opacity:1"
     d="M 104.95856,262.45615 C 88.960323,257.02769 75.49009,242.6466 66.205686,221.08276 63.989026,215.93437 61.344662,211.47532 60.32933,211.17377 51.079366,208.42648 37.5792,202.5047 30.351568,198.02416 0.53513224,179.54033 -4.8126229,153.26291 16.812015,131.49447 l 7.859701,-7.91196 v -9.44669 c 0,-12.85554 3.250584,-20.946399 11.601421,-28.876543 8.350725,-7.930032 15.757087,-10.390863 31.342352,-10.413766 l 11.591249,-0.01702 6.126674,-6.148862 c 3.736782,-3.750325 9.276917,-7.6216 14.202605,-9.924352 6.959683,-3.25363 9.354143,-3.772044 17.323143,-3.75056 7.73597,0.02086 10.41448,0.582097 16.38985,3.434213 13.58834,6.485865 27.39581,23.324333 34.85213,42.50277 1.78125,4.58158 3.85006,8.32822 4.59737,8.32588 0.7473,-0.002 6.99496,2.65322 13.88366,5.90126 14.67518,6.91934 27.36116,17.28162 33.00676,26.96093 3.32802,5.7058 3.64845,7.23064 3.64537,17.34759 -0.003,13.25968 -1.97925,17.65537 -12.75293,28.38088 l -6.91585,6.88496 -0.20707,9.5131 c -0.28922,13.2868 -3.74443,21.7583 -12.02025,29.47134 -7.64093,7.12132 -14.59498,9.72566 -28.34655,10.61601 l -9.83608,0.63683 -6.76231,6.21314 c -12.92183,11.87248 -27.75488,15.90432 -41.4347,11.26253 z m 28.034,-14.43667 c 2.29866,-0.74847 5.46443,-2.14741 7.03503,-3.10876 2.77982,-1.70149 2.60023,-1.83039 -6.7623,-4.85317 -11.39447,-3.67883 -25.32531,-10.24794 -35.130312,-16.56576 -3.88832,-2.50543 -7.069681,-3.94773 -7.069681,-3.20509 0,2.99367 9.069643,15.25036 15.261333,20.62412 9.1051,7.90236 17.42046,10.11907 26.66593,7.10866 z m 47.55305,-26.8978 c 5.74824,-2.55476 10.22265,-7.48274 12.39927,-13.65625 2.49826,-7.08577 1.97123,-7.22612 -8.92533,-2.37707 -5.67854,2.52699 -10.86058,4.59455 -11.5156,4.59455 -1.02299,0 -6.43851,12.17557 -6.43851,14.47553 0,1.32586 8.83163,-0.52629 14.48017,-3.03676 z m -20.00732,-2.11011 c 1.22287,-2.5752 1.89917,-4.99008 1.5029,-5.36637 -0.39626,-0.37629 -4.60334,0.15446 -9.34904,1.17948 -4.74571,1.02502 -10.04087,1.86366 -11.76702,1.86366 -5.53798,0 -3.3629,2.18291 4.54601,4.56234 11.27603,3.39247 12.47774,3.21388 15.06715,-2.23911 z m -11.07125,-26.66041 c 6.08609,-1.26388 13.27872,-3.00604 15.98364,-3.87149 4.53726,-1.45169 4.9824,-1.98 5.74905,-6.82303 0.45705,-2.88721 0.872,-12.82016 0.92214,-22.07319 l 0.091,-16.82367 -4.7436,-5.94395 c -5.52628,-6.92474 -18.56951,-19.59935 -26.59945,-25.84782 l -5.60137,-4.35868 -18.72044,-0.0653 c -10.29624,-0.0359 -21.282334,0.32323 -24.413549,0.79806 -5.687635,0.86249 -5.694977,0.86971 -7.642752,7.52624 -3.952594,13.50804 -5.721558,27.4362 -5.721558,45.04933 v 17.64804 l 10.017875,9.21147 10.017879,9.21147 19.797755,-0.66981 c 12.64334,-0.42775 23.79656,-1.50021 30.86334,-2.96774 z M 47.346157,175.53145 C 39.234953,164.10976 33.056994,152.56279 29.147528,141.51708 l -2.844209,-8.03593 -2.944048,4.52357 c -2.135909,3.2819 -3.050636,6.60947 -3.332366,12.12245 -0.343607,6.7238 0.04353,8.30066 3.361488,13.69344 2.159746,3.51024 6.48537,8.04605 10.201013,10.69668 6.432118,4.58847 17.555118,10.64663 19.547562,10.64663 0.577365,0 -2.028499,-4.3346 -5.790811,-9.63247 z m 138.297873,4.43451 c 2.75639,-1.65239 5.01161,-3.69264 5.01161,-4.53388 0,-2.55356 -11.45567,-23.67355 -11.82049,-21.79258 -0.18681,0.96325 -0.53919,8.20465 -0.78306,16.09199 -0.48914,15.82055 -0.86999,15.30713 7.59194,10.23447 z m 18.64087,-16.34473 c 6.96754,-11.5353 4.13537,-23.69093 -7.96115,-34.16941 -5.46484,-4.73386 -21.3295,-13.86976 -22.36974,-12.88194 -0.18153,0.1724 0.43959,3.72358 1.38028,7.89152 0.9407,4.16793 1.72979,9.00654 1.75355,10.75246 0.0238,1.74593 2.56152,6.87121 5.63945,11.38952 3.07794,4.51832 7.57131,12.16452 9.98528,16.99156 5.00795,10.01406 5.53882,10.01526 11.57233,0.0263 z M 59.022131,118.91755 c 0.681309,-2.3432 1.115421,-4.35883 0.964698,-4.47921 -0.150729,-0.12036 -3.178775,0.83992 -6.728989,2.13397 -5.091732,1.85592 -6.454931,2.89761 -6.454931,4.93259 0,2.65342 3.366746,12.62033 6.267535,18.5544 1.578628,3.22938 1.692586,2.98652 3.175172,-6.76591 0.845771,-5.56351 2.095207,-12.03265 2.776515,-14.37584 z m 110.016979,5.82459 c -1.84301,-9.76591 -3.28944,-11.46165 -11.43946,-13.41121 -4.13483,-0.9891 -7.51239,-1.72567 -7.50572,-1.63684 0.0239,0.31859 19.05322,19.30575 19.40837,19.36544 0.19971,0.0336 -0.008,-1.90928 -0.46319,-4.31739 z M 62.032821,106.93668 c 0.23081,0 1.405793,-2.49569 2.611085,-5.54598 1.205284,-3.050271 3.817705,-8.641404 5.805372,-12.424734 l 3.61396,-6.878783 -5.136421,0.779967 c -5.959855,0.90501 -13.226523,4.188964 -16.216123,7.328393 -3.564931,3.743595 -7.082066,12.431937 -7.110292,17.564487 l -0.02702,4.90985 8.019893,-2.8666 c 4.410931,-1.57663 8.208726,-2.8666 8.439536,-2.8666 z m 98.867849,-6.71354 C 150.01794,76.715559 131.98585,65.014924 116.25792,71.255411 c -5.06728,2.010586 -12.89743,7.753727 -12.89746,9.459854 -4e-5,0.669081 3.18131,2.603993 7.06962,4.299803 3.88833,1.695812 12.03269,6.139749 18.09859,9.875415 8.71923,5.369737 12.96768,7.185097 20.28692,8.668647 5.09192,1.03207 10.4718,1.95154 11.9553,2.04323 l 2.69726,0.16675 z m -36.85489,-1.100668 c -1.45789,-1.69556 -23.17668,-12.034503 -25.280611,-12.034503 -1.358492,0 -8.890088,11.069182 -8.917853,13.106551 -0.0069,0.46591 7.95513,0.7286 17.692134,0.5838 13.53279,-0.20126 17.42158,-0.59137 16.50633,-1.655848 z"
     id="path3723"
     inkscape:connector-curvature="0" />
  <text
     xml:space="preserve"
     style="font-style:normal;font-weight:normal;font-size:41.66689301px;line-height:1.25;font-family:sans-serif;letter-spacing:0px;word-spacing:0px;fill:#18151b;fill-opacity:0.99497483;stroke:#ffffff;stroke-width:10.00005436;stroke-miterlimit:4;stroke-dasharray:none;stroke-opacity:1"
     x="37.524353"
     y="224.55556"
     id="text3727"
     transform="scale(1.0208764,0.9795505)"><tspan
       sodipodi:role="line"
       id="tspan3725"
       x="37.524353"
       y="224.55556"
       style="font-style:normal;font-variant:normal;font-weight:normal;font-stretch:normal;font-size:293.05712891px;line-height:120;font-family:'Magmawave Caps';-inkscape-font-specification:'Magmawave Caps';fill:#18151b;fill-opacity:0.99497483;stroke:#ffffff;stroke-width:10.00005436;stroke-miterlimit:4;stroke-dasharray:none;stroke-opacity:1">A</tspan></text>
  <path
     style="opacity:0;fill:#6c5353;stroke-width:0.56497175"
     d="m 185.40866,107.64513 47.81106,-95.620793 47.63825,95.197063 c 26.20104,52.35839 47.65231,95.41617 47.66949,95.68397 0.0172,0.2678 -6.26113,0.36609 -13.95181,0.21842 -11.7433,-0.22548 -14.66678,-0.45363 -18.25164,-1.42437 -8.5979,-2.32821 -16.48654,-7.10352 -20.93554,-12.6731 -1.56741,-1.9622 -9.17318,-16.67486 -22.09746,-42.74552 -10.83908,-21.86443 -19.88186,-39.57906 -20.09506,-39.36586 -0.21321,0.2132 -6.14496,12.38194 -13.18167,27.04163 l -12.79403,26.65399 18.09106,0.14917 18.09107,0.14918 -0.36354,3.54839 c -1.64525,16.05859 -11.84838,29.62554 -26.87078,35.72969 -6.9967,2.84301 -10.51196,3.07894 -45.87578,3.07894 h -32.69469 z"
     id="path3735"
     inkscape:connector-curvature="0" />
  <path
     style="opacity:0;fill:#6c5353;stroke-width:0.56497175"
     d="m 185.40866,107.64513 47.81106,-95.620793 47.63825,95.197063 c 26.20104,52.35839 47.65231,95.41617 47.66949,95.68397 0.0172,0.2678 -6.26113,0.36609 -13.95181,0.21842 -11.7433,-0.22548 -14.66678,-0.45363 -18.25164,-1.42437 -8.5979,-2.32821 -16.48654,-7.10352 -20.93554,-12.6731 -1.56741,-1.9622 -9.17318,-16.67486 -22.09746,-42.74552 -10.83908,-21.86443 -19.88186,-39.57906 -20.09506,-39.36586 -0.21321,0.2132 -6.14496,12.38194 -13.18167,27.04163 l -12.79403,26.65399 18.09106,0.14917 18.09107,0.14918 -0.36354,3.54839 c -1.64525,16.05859 -11.84838,29.62554 -26.87078,35.72969 -6.9967,2.84301 -10.51196,3.07894 -45.87578,3.07894 h -32.69469 z"
     id="path3737"
     inkscape:connector-curvature="0" />
  <path
     style="opacity:0;fill:#de8787;stroke-width:0.56497175"
     d="m 185.40866,107.64513 47.81106,-95.620793 47.63825,95.197063 c 26.20104,52.35839 47.65231,95.41617 47.66949,95.68397 0.0172,0.2678 -6.26113,0.36609 -13.95181,0.21842 -11.7433,-0.22548 -14.66678,-0.45363 -18.25164,-1.42437 -8.5979,-2.32821 -16.48654,-7.10352 -20.93554,-12.6731 -1.56741,-1.9622 -9.17318,-16.67486 -22.09746,-42.74552 -10.83908,-21.86443 -19.88186,-39.57906 -20.09506,-39.36586 -0.21321,0.2132 -6.14496,12.38194 -13.18167,27.04163 l -12.79403,26.65399 18.09106,0.14917 18.09107,0.14918 -0.36354,3.54839 c -1.64525,16.05859 -11.84838,29.62554 -26.87078,35.72969 -6.9967,2.84301 -10.51196,3.07894 -45.87578,3.07894 h -32.69469 z"
     id="path3739"
     inkscape:connector-curvature="0" />
  <path
     style="opacity:0;fill:#de8787;stroke-width:0.56497175"
     d="m 185.40866,107.64513 47.81106,-95.620793 47.63825,95.197063 c 26.20104,52.35839 47.65231,95.41617 47.66949,95.68397 0.0172,0.2678 -6.26113,0.36609 -13.95181,0.21842 -11.7433,-0.22548 -14.66678,-0.45363 -18.25164,-1.42437 -8.5979,-2.32821 -16.48654,-7.10352 -20.93554,-12.6731 -1.56741,-1.9622 -9.17318,-16.67486 -22.09746,-42.74552 -10.83908,-21.86443 -19.88186,-39.57906 -20.09506,-39.36586 -0.21321,0.2132 -6.14496,12.38194 -13.18167,27.04163 l -12.79403,26.65399 18.09106,0.14917 18.09107,0.14918 -0.36354,3.54839 c -1.64525,16.05859 -11.84838,29.62554 -26.87078,35.72969 -6.9967,2.84301 -10.51196,3.07894 -45.87578,3.07894 h -32.69469 z"
     id="path3741"
     inkscape:connector-curvature="0" />
  <path
     style="opacity:0;fill:#de8787;stroke-width:0.56497175"
     d="m 185.40866,107.64513 47.81106,-95.620793 47.63825,95.197063 c 26.20104,52.35839 47.65231,95.41617 47.66949,95.68397 0.0172,0.2678 -6.26113,0.36609 -13.95181,0.21842 -11.7433,-0.22548 -14.66678,-0.45363 -18.25164,-1.42437 -8.5979,-2.32821 -16.48654,-7.10352 -20.93554,-12.6731 -1.56741,-1.9622 -9.17318,-16.67486 -22.09746,-42.74552 -10.83908,-21.86443 -19.88186,-39.57906 -20.09506,-39.36586 -0.21321,0.2132 -6.14496,12.38194 -13.18167,27.04163 l -12.79403,26.65399 18.09106,0.14917 18.09107,0.14918 -0.36354,3.54839 c -1.64525,16.05859 -11.84838,29.62554 -26.87078,35.72969 -6.9967,2.84301 -10.51196,3.07894 -45.87578,3.07894 h -32.69469 z"
     id="path3743"
     inkscape:connector-curvature="0" />
  <path
     style="opacity:0;fill:#de8787;stroke-width:0.56497175"
     d="m 188.50885,120.76775 47.81106,-95.620794 47.63825,95.197064 c 26.20104,52.35839 47.65231,95.41617 47.66949,95.68397 0.0172,0.2678 -6.26113,0.36608 -13.95181,0.21842 -11.7433,-0.22548 -14.66678,-0.45363 -18.25164,-1.42437 -8.5979,-2.32821 -16.48654,-7.10352 -20.93554,-12.6731 -1.56741,-1.9622 -9.17318,-16.67486 -22.09746,-42.74552 -10.83908,-21.86443 -19.88186,-39.57907 -20.09506,-39.36586 -0.21321,0.2132 -6.14496,12.38194 -13.18167,27.04163 l -12.79403,26.65399 18.09106,0.14917 18.09107,0.14918 -0.36354,3.54839 c -1.64525,16.05858 -11.84838,29.62554 -26.87078,35.72969 -6.99671,2.84301 -10.51196,3.07894 -45.87578,3.07894 h -32.69469 z"
     id="path3745"
     inkscape:connector-curvature="0" />
  <path
     style="opacity:0;fill:#de8787;stroke-width:0.56497175"
     d="m 188.50885,120.76775 47.81106,-95.620794 47.63825,95.197064 c 26.20104,52.35839 47.65231,95.41617 47.66949,95.68397 0.0172,0.2678 -6.26113,0.36608 -13.95181,0.21842 -11.7433,-0.22548 -14.66678,-0.45363 -18.25164,-1.42437 -8.5979,-2.32821 -16.48654,-7.10352 -20.93554,-12.6731 -1.56741,-1.9622 -9.17318,-16.67486 -22.09746,-42.74552 -10.83908,-21.86443 -19.88186,-39.57907 -20.09506,-39.36586 -0.21321,0.2132 -6.14496,12.38194 -13.18167,27.04163 l -12.79403,26.65399 18.09106,0.14917 18.09107,0.14918 -0.36354,3.54839 c -1.64525,16.05858 -11.84838,29.62554 -26.87078,35.72969 -6.99671,2.84301 -10.51196,3.07894 -45.87578,3.07894 h -32.69469 z"
     id="path3747"
     inkscape:connector-curvature="0" />
  <path
     style="opacity:0;fill:#de8787;stroke-width:0.56497175"
     d="m 188.50885,120.76775 47.81106,-95.620794 47.63825,95.197064 c 26.20104,52.35839 47.65231,95.41617 47.66949,95.68397 0.0172,0.2678 -6.26113,0.36608 -13.95181,0.21842 -11.7433,-0.22548 -14.66678,-0.45363 -18.25164,-1.42437 -8.5979,-2.32821 -16.48654,-7.10352 -20.93554,-12.6731 -1.56741,-1.9622 -9.17318,-16.67486 -22.09746,-42.74552 -10.83908,-21.86443 -19.88186,-39.57907 -20.09506,-39.36586 -0.21321,0.2132 -6.14496,12.38194 -13.18167,27.04163 l -12.79403,26.65399 18.09106,0.14917 18.09107,0.14918 -0.36354,3.54839 c -1.64525,16.05858 -11.84838,29.62554 -26.87078,35.72969 -6.99671,2.84301 -10.51196,3.07894 -45.87578,3.07894 h -32.69469 z"
     id="path3749"
     inkscape:connector-curvature="0" />
  <path
     style="opacity:0;fill:#de8787;stroke-width:0.56497175"
     d="m 188.50885,120.76775 47.81106,-95.620794 47.63825,95.197064 c 26.20104,52.35839 47.65231,95.41617 47.66949,95.68397 0.0172,0.2678 -6.26113,0.36608 -13.95181,0.21842 -11.7433,-0.22548 -14.66678,-0.45363 -18.25164,-1.42437 -8.5979,-2.32821 -16.48654,-7.10352 -20.93554,-12.6731 -1.56741,-1.9622 -9.17318,-16.67486 -22.09746,-42.74552 -10.83908,-21.86443 -19.88186,-39.57907 -20.09506,-39.36586 -0.21321,0.2132 -6.14496,12.38194 -13.18167,27.04163 l -12.79403,26.65399 18.09106,0.14917 18.09107,0.14918 -0.36354,3.54839 c -1.64525,16.05858 -11.84838,29.62554 -26.87078,35.72969 -6.99671,2.84301 -10.51196,3.07894 -45.87578,3.07894 h -32.69469 z"
     id="path3751"
     inkscape:connector-curvature="0" />
  <path
     style="opacity:0;fill:#de8787;stroke-width:0.56497175"
     d="m 188.50885,120.76775 47.81106,-95.620794 47.63825,95.197064 c 26.20104,52.35839 47.65231,95.41617 47.66949,95.68397 0.0172,0.2678 -6.26113,0.36608 -13.95181,0.21842 -11.7433,-0.22548 -14.66678,-0.45363 -18.25164,-1.42437 -8.5979,-2.32821 -16.48654,-7.10352 -20.93554,-12.6731 -1.56741,-1.9622 -9.17318,-16.67486 -22.09746,-42.74552 -10.83908,-21.86443 -19.88186,-39.57907 -20.09506,-39.36586 -0.21321,0.2132 -6.14496,12.38194 -13.18167,27.04163 l -12.79403,26.65399 18.09106,0.14917 18.09107,0.14918 -0.36354,3.54839 c -1.64525,16.05858 -11.84838,29.62554 -26.87078,35.72969 -6.99671,2.84301 -10.51196,3.07894 -45.87578,3.07894 h -32.69469 z"
     id="path3753"
     inkscape:connector-curvature="0" />
  <path
     style="opacity:0;fill:#ff0000;stroke-width:0.56497175"
     d="m 164.78003,157.49091 47.81107,-95.620792 47.63825,95.197062 c 26.20104,52.35839 47.65231,95.41618 47.66949,95.68397 0.0172,0.2678 -6.26113,0.36609 -13.95181,0.21842 -11.7433,-0.22547 -14.66678,-0.45363 -18.25165,-1.42437 -8.59789,-2.32821 -16.48654,-7.10352 -20.93554,-12.6731 -1.5674,-1.9622 -9.17317,-16.67486 -22.09745,-42.74552 -10.83908,-21.86442 -19.88186,-39.57906 -20.09507,-39.36586 -0.2132,0.2132 -6.14495,12.38194 -13.18167,27.04163 l -12.79403,26.654 18.09107,0.14917 18.09107,0.14917 -0.36354,3.5484 c -1.64525,16.05858 -11.84839,29.62553 -26.87079,35.72968 -6.9967,2.84301 -10.51196,3.07894 -45.87577,3.07894 h -32.69469 z"
     id="path3761"
     inkscape:connector-curvature="0" />
  <path
     style="opacity:0;vector-effect:none;fill:#dbe3de;fill-opacity:1;stroke-width:0.31919307;stroke-linecap:butt;stroke-linejoin:miter;stroke-miterlimit:4;stroke-dasharray:none;stroke-dashoffset:0;stroke-opacity:1"
     d="m 164.81564,157.53157 c 26.33635,-52.6738 47.92733,-95.720874 47.97996,-95.660168 0.0526,0.0607 21.62434,43.175358 47.93715,95.810328 l 47.84146,95.69996 -14.02263,-0.3077 c -11.79048,-0.25871 -14.7421,-0.49746 -18.5424,-1.4999 -8.68347,-2.29049 -17.10837,-7.34892 -21.38747,-12.84133 -1.14435,-1.46883 -10.9796,-20.59162 -21.85608,-42.49509 -11.78593,-23.73493 -19.97898,-39.61262 -20.27924,-39.30008 -0.27709,0.28842 -6.22925,12.47356 -13.22701,27.07808 l -12.72321,26.55367 18.11366,0.14916 18.11367,0.14917 -0.38744,3.52315 c -1.62817,14.80527 -9.90318,26.93559 -23.04105,33.77578 -2.39679,1.24787 -6.33746,2.81857 -8.75706,3.49045 -4.2451,1.17877 -5.61273,1.22901 -39.02293,1.43333 l -34.62365,0.21174 z"
     id="path3763"
     inkscape:connector-curvature="0" />
  <path
     style="opacity:0;vector-effect:none;fill:#ff0000;fill-opacity:1;stroke-width:0.31919307;stroke-linecap:butt;stroke-linejoin:miter;stroke-miterlimit:4;stroke-dasharray:none;stroke-dashoffset:0;stroke-opacity:1"
     d="m 164.78003,157.49091 47.81107,-95.620792 47.63825,95.197062 c 26.20104,52.35839 47.65231,95.41618 47.66949,95.68397 0.0172,0.2678 -6.26113,0.36609 -13.95181,0.21842 -11.7433,-0.22547 -14.66678,-0.45363 -18.25165,-1.42437 -8.59789,-2.32821 -16.48654,-7.10352 -20.93554,-12.6731 -1.5674,-1.9622 -9.17317,-16.67486 -22.09745,-42.74552 -10.83908,-21.86442 -19.88186,-39.57906 -20.09507,-39.36586 -0.2132,0.2132 -6.14495,12.38194 -13.18167,27.04163 l -12.79403,26.654 18.09107,0.14917 18.09107,0.14917 -0.36354,3.5484 c -1.64525,16.05858 -11.84839,29.62553 -26.87079,35.72968 -6.9967,2.84301 -10.51196,3.07894 -45.87577,3.07894 h -32.69469 z"
     id="path3765"
     inkscape:connector-curvature="0" />
  <path
     style="opacity:0;vector-effect:none;fill:#ff0000;fill-opacity:1;stroke-width:0.18033506;stroke-linecap:butt;stroke-linejoin:miter;stroke-miterlimit:4;stroke-dasharray:none;stroke-dashoffset:0;stroke-opacity:1"
     d="m 164.78003,157.49091 47.81107,-95.620792 47.63825,95.197062 c 26.20104,52.35839 47.65231,95.41618 47.66949,95.68397 0.0172,0.2678 -6.26113,0.36609 -13.95181,0.21842 -11.7433,-0.22547 -14.66678,-0.45363 -18.25165,-1.42437 -8.59789,-2.32821 -16.48654,-7.10352 -20.93554,-12.6731 -1.5674,-1.9622 -9.17317,-16.67486 -22.09745,-42.74552 -10.83908,-21.86442 -19.88186,-39.57906 -20.09507,-39.36586 -0.2132,0.2132 -6.14495,12.38194 -13.18167,27.04163 l -12.79403,26.654 18.09107,0.14917 18.09107,0.14917 -0.36354,3.5484 c -1.64525,16.05858 -11.84839,29.62553 -26.87079,35.72968 -6.9967,2.84301 -10.51196,3.07894 -45.87577,3.07894 h -32.69469 z"
     id="path3767"
     inkscape:connector-curvature="0" />
  <path
     style="opacity:0;vector-effect:none;fill:#ff0000;fill-opacity:1;stroke-width:0.18033506;stroke-linecap:butt;stroke-linejoin:miter;stroke-miterlimit:4;stroke-dasharray:none;stroke-dashoffset:0;stroke-opacity:1"
     d="m 164.78003,157.49091 47.81107,-95.620792 47.63825,95.197062 c 26.20104,52.35839 47.65231,95.41618 47.66949,95.68397 0.0172,0.2678 -6.26113,0.36609 -13.95181,0.21842 -11.7433,-0.22547 -14.66678,-0.45363 -18.25165,-1.42437 -8.59789,-2.32821 -16.48654,-7.10352 -20.93554,-12.6731 -1.5674,-1.9622 -9.17317,-16.67486 -22.09745,-42.74552 -10.83908,-21.86442 -19.88186,-39.57906 -20.09507,-39.36586 -0.2132,0.2132 -6.14495,12.38194 -13.18167,27.04163 l -12.79403,26.654 18.09107,0.14917 18.09107,0.14917 -0.36354,3.5484 c -1.64525,16.05858 -11.84839,29.62553 -26.87079,35.72968 -6.9967,2.84301 -10.51196,3.07894 -45.87577,3.07894 h -32.69469 z"
     id="path3769"
     inkscape:connector-curvature="0" />
  <path
     style="opacity:0;vector-effect:none;fill:#ff0000;fill-opacity:1;stroke-width:0.18785003;stroke-linecap:butt;stroke-linejoin:miter;stroke-miterlimit:4;stroke-dasharray:none;stroke-dashoffset:0;stroke-opacity:1"
     d="M 35.48933,212.17908 C 21.757064,209.85304 8.5125164,199.7546 -1.4376925,184.02369 c -1.6840651,-2.66244 -4.7908153,-8.49464 -6.9039001,-12.96043 -2.1130784,-4.4658 -4.4365544,-8.85628 -5.1632754,-9.75664 -0.945574,-1.17151 -3.091264,-2.277 -7.545476,-3.88756 -8.272351,-2.9911 -19.728417,-8.4156 -25.424456,-12.03859 -8.919869,-5.67353 -17.175913,-14.18994 -21.189433,-21.85768 -2.17784,-4.1607 -3.937686,-11.02795 -3.937686,-15.36556 0,-7.27897 3.726426,-16.861446 9.089737,-23.374218 1.423965,-1.729143 4.692616,-5.246844 7.26367,-7.817111 l 4.674644,-4.673205 0.02096,-7.432887 c 0.04272,-15.148021 2.613468,-21.896041 11.635573,-30.542477 8.875138,-8.505589 13.341403,-10.00843 31.0832804,-10.459129 L 3.9644781,23.558484 9.2262186,18.462613 C 15.170658,12.705559 20.59461,8.9879725 27.033507,6.257462 31.416298,4.3988722 31.478843,4.3907165 41.348755,4.3907165 c 9.882643,0 9.925601,0.00562 13.92516,1.8237525 14.962521,6.801694 27.479306,21.271931 36.557095,42.262447 1.710541,3.955294 3.467022,7.680416 3.90328,8.278051 0.436259,0.597634 2.909866,1.924232 5.49691,2.947998 17.52676,6.935833 32.66584,17.471419 40.52273,28.200582 4.80522,6.561853 5.45334,8.905615 5.44147,19.677183 -0.0157,14.2539 -1.50345,17.57741 -12.98761,29.01391 l -6.17706,6.15141 -0.42053,8.35897 c -0.53758,10.68565 -1.53061,15.27011 -4.60248,21.24826 -1.91057,3.7181 -3.53818,5.82816 -7.12688,9.23934 -7.84993,7.46163 -14.40592,9.90917 -29.702428,11.08877 l -8.48117,0.65403 -4.36949,3.81758 c -9.544656,8.33908 -15.797936,12.18247 -22.966975,14.11595 -4.346985,1.17238 -10.940786,1.5759 -14.871447,0.91013 z m 21.780663,-15.36025 c 4.520063,-1.33764 8.788133,-3.68851 8.579926,-4.72588 -0.098,-0.4882 -1.392652,-1.34173 -2.87704,-1.89672 -1.484382,-0.555 -6.213566,-2.31039 -10.509297,-3.90089 -9.307178,-3.44598 -19.346853,-8.26561 -27.958806,-13.42187 -7.272431,-4.35425 -8.990485,-5.03277 -8.990485,-3.55065 0,2.91459 8.442277,14.13149 15.180043,20.1691 8.896776,7.97227 16.920107,10.18431 26.575659,7.32691 z M 99.025687,172.0212 c 10.246903,-2.75353 16.802083,-8.91764 19.327633,-18.17454 1.37823,-5.05168 0.70375,-4.99627 -13.92042,1.14359 -7.640032,3.20761 -8.195631,3.55155 -9.572185,5.92536 -1.84405,3.18 -4.892515,11.5587 -4.453467,12.24033 0.383688,0.59568 3.903597,0.13224 8.618439,-1.13474 z m -17.225169,-0.12554 c 1.479581,-0.53977 4.129348,-4.96074 4.946049,-8.25219 0.37878,-1.52656 0.304975,-1.58532 -1.991323,-1.58532 -1.311569,0 -5.105,0.53236 -8.429835,1.18302 -3.324841,0.65065 -7.75234,1.36405 -9.838893,1.58532 -5.157328,0.54691 -5.371519,1.72103 -0.681105,3.73362 3.423192,1.46883 11.520945,3.77118 13.504923,3.83973 0.556763,0.0193 1.677343,-0.20766 2.490184,-0.50418 z M 41.348755,144.16633 c 18.456254,-0.79945 27.965006,-1.91922 39.757213,-4.68189 11.522022,-2.69939 13.360591,-3.55375 14.316372,-6.65269 0.388308,-1.25901 0.897738,-10.53323 1.197063,-21.79214 L 97.140479,91.439281 93.727274,87.147705 C 86.437387,77.981791 74.700133,66.520995 63.697415,57.82514 l -3.786197,-2.992374 -16.941453,0.01942 C 22.926127,54.875158 14.089227,55.490299 11.967479,57.010283 10.233878,58.25221 8.8828502,61.832863 6.8416875,70.595327 4.2840935,81.574711 3.421049,90.284503 3.0625859,108.73371 l -0.3360337,17.29441 10.1488818,9.35897 c 9.658022,8.90633 10.265107,9.35913 12.552082,9.36189 1.321764,0.002 8.486321,-0.2606 15.921239,-0.58264 z m -63.684954,-11.14648 c 0,-0.43492 -1.394305,-2.83452 -3.098458,-5.33245 -10.876665,-15.9429 -16.676917,-26.62808 -20.87504,-38.455792 -1.425912,-4.017343 -2.765908,-7.299725 -2.977768,-7.294185 -0.70977,0.01856 -4.791014,7.168796 -5.42351,9.501858 -1.133814,4.182251 -1.477233,11.468769 -0.689101,14.621079 1.529518,6.11764 8.281655,14.04727 16.441255,19.3084 5.397565,3.48022 14.689967,8.41705 15.871621,8.43222 0.41305,0.005 0.751001,-0.34621 0.751001,-0.78113 z m 131.575519,-3.67658 c 4.53043,-2.74357 6.00801,-4.1485 6.00801,-5.71265 0,-1.2948 -8.70833,-18.35433 -10.5457,-20.65892 -0.74242,-0.93121 -1.0146,-0.99859 -1.42984,-0.35392 -0.86297,1.33981 -1.49855,26.4471 -0.71144,28.10467 0.8282,1.74411 1.88023,1.52685 6.67897,-1.37918 z m 17.89946,-14.26828 c 10.49645,-15.223494 5.82065,-29.993338 -13.41822,-42.38522 -5.1539,-3.319664 -13.961842,-8.056835 -14.980276,-8.056835 -0.622355,0 -0.295496,3.425499 0.832839,8.727869 0.631527,2.967745 1.342607,6.952402 1.580157,8.854788 0.49559,3.968683 1.62206,6.297797 8.12592,16.801427 2.58069,4.167761 6.04619,10.166741 7.70112,13.331071 3.26477,6.24247 4.49154,7.77825 6.00016,7.51165 0.53816,-0.0951 2.40939,-2.24824 4.1583,-4.78475 z M -20.334607,89.277479 c 0.181198,-0.713395 0.894412,-4.669493 1.584918,-8.791329 0.690507,-4.121836 1.788188,-9.654914 2.439288,-12.295731 0.651101,-2.640811 1.18382,-4.910703 1.18382,-5.044204 0,-1.11342 -10.923491,2.744329 -12.759732,4.506238 -0.962044,0.923102 -1.133509,1.635527 -0.857933,3.564685 0.762082,5.334918 6.200032,19.357422 7.506839,19.357422 0.315342,0 0.721602,-0.583687 0.9028,-1.297081 z M 93.301831,71.109042 c -1.165549,-5.329188 -2.64856,-7.9024 -5.46355,-9.479888 -2.136943,-1.197524 -11.166444,-3.514469 -12.607761,-3.235119 -0.644756,0.124963 2.259524,3.380426 8.864717,9.936625 7.434776,7.37962 9.876685,9.488559 10.041758,8.67248 0.119954,-0.593059 -0.255867,-3.2454 -0.835164,-5.894098 z m -114.349698,-12.762761 8.00846,-2.827771 3.3487869,-7.404759 c 1.8418289,-4.072618 4.4984468,-9.571787 5.9035947,-12.220377 1.4051427,-2.64859 2.4072081,-4.957239 2.2268115,-5.130332 -0.6112377,-0.586497 -8.7660421,1.017685 -12.5284101,2.464541 -6.239503,2.399464 -9.391786,5.091417 -12.169273,10.392186 -1.330831,2.539862 -2.750225,5.991902 -3.154208,7.671202 -0.858194,3.567399 -0.979208,9.883081 -0.189367,9.883081 0.299831,0 4.148951,-1.272497 8.553605,-2.827771 z M 88.210818,54.400404 C 88.210561,54.162606 86.49343,50.595633 84.394959,46.473797 77.746862,33.415554 70.162279,25.172235 60.619695,20.633602 55.66366,18.276417 55.432033,18.22696 49.504869,18.260319 c -4.865609,0.02738 -6.614055,0.278194 -8.91125,1.278295 -6.198463,2.698547 -13.548763,8.460092 -12.891054,10.10467 0.180583,0.451535 3.122077,2.192814 6.53666,3.869505 3.414577,1.676692 10.93964,5.77539 16.722353,9.108216 5.782714,3.332826 12.050221,6.660581 13.927791,7.395011 3.131642,1.224971 15.296639,3.862391 20.317896,4.404998 1.156534,0.124979 2.305569,0.268751 2.553402,0.319493 0.247833,0.05074 0.450398,-0.102304 0.450151,-0.340103 z M 48.128115,48.546335 c 1.091,-1.064899 -0.986445,-2.452256 -10.5789,-7.064779 C 26.027729,35.941462 23.439445,35.003469 22.246879,35.936 c -1.481276,1.158293 -7.93419,10.970162 -7.93419,12.064201 0,0.54077 0.473131,1.119068 1.051403,1.285105 0.578272,0.166037 8.022345,0.228158 16.542383,0.138045 11.319328,-0.119718 15.687742,-0.355896 16.22164,-0.877016 z"
     id="path3771"
     inkscape:connector-curvature="0" />
  <path
     style="opacity:0;vector-effect:none;fill:#2c2ca0;fill-opacity:1;stroke-width:0.18033506;stroke-linecap:butt;stroke-linejoin:miter;stroke-miterlimit:4;stroke-dasharray:none;stroke-dashoffset:0;stroke-opacity:1"
     d="m 164.85793,157.61488 c 26.17883,-52.35875 47.72569,-95.197734 47.88192,-95.197734 0.15622,0 21.70309,42.838984 47.88191,95.197734 l 47.59786,95.19774 -13.41785,-0.004 c -11.44757,-0.003 -14.10792,-0.16938 -18.11723,-1.13055 -8.83861,-2.11891 -17.57305,-7.24038 -21.96191,-12.87746 -1.18375,-1.52041 -11.04913,-20.59987 -21.92306,-42.3988 -10.87393,-21.79893 -19.92063,-39.63442 -20.10377,-39.63442 -0.35633,0 -25.96534,53.10158 -25.95237,53.81355 0.005,0.23305 8.01619,0.42373 17.80433,0.42373 h 17.79661 v 2.73449 c 0,3.8829 -1.84725,10.60785 -4.24686,15.46084 -5.46557,11.05359 -16.15583,19.62447 -28.02652,22.47021 -4.46668,1.07078 -6.64267,1.13467 -38.7716,1.13841 l -34.03932,0.004 z"
     id="path3773"
     inkscape:connector-curvature="0" />
  <path
     style="opacity:0;vector-effect:none;fill:#5fbcd3;fill-opacity:1;stroke-width:0.18033506;stroke-linecap:butt;stroke-linejoin:miter;stroke-miterlimit:4;stroke-dasharray:none;stroke-dashoffset:0;stroke-opacity:1"
     d="m 164.85793,157.61488 c 26.17883,-52.35875 47.72569,-95.197734 47.88192,-95.197734 0.15622,0 21.70309,42.838984 47.88191,95.197734 l 47.59786,95.19774 -13.41785,-0.004 c -11.44757,-0.003 -14.10792,-0.16938 -18.11723,-1.13055 -8.83861,-2.11891 -17.57305,-7.24038 -21.96191,-12.87746 -1.18375,-1.52041 -11.04913,-20.59987 -21.92306,-42.3988 -10.87393,-21.79893 -19.92063,-39.63442 -20.10377,-39.63442 -0.35633,0 -25.96534,53.10158 -25.95237,53.81355 0.005,0.23305 8.01619,0.42373 17.80433,0.42373 h 17.79661 v 2.73449 c 0,3.8829 -1.84725,10.60785 -4.24686,15.46084 -5.46557,11.05359 -16.15583,19.62447 -28.02652,22.47021 -4.46668,1.07078 -6.64267,1.13467 -38.7716,1.13841 l -34.03932,0.004 z"
     id="path3775"
     inkscape:connector-curvature="0" />
  <path
     style="opacity:0;vector-effect:none;fill:#ff0000;fill-opacity:1;stroke-width:0.10188421;stroke-linecap:butt;stroke-linejoin:miter;stroke-miterlimit:4;stroke-dasharray:none;stroke-dashoffset:0;stroke-opacity:1"
     d="m 164.85793,157.61488 c 26.17883,-52.35875 47.72569,-95.197734 47.88192,-95.197734 0.15622,0 21.70309,42.838984 47.88191,95.197734 l 47.59786,95.19774 -13.41785,-0.004 c -11.44757,-0.003 -14.10792,-0.16938 -18.11723,-1.13055 -8.83861,-2.11891 -17.57305,-7.24038 -21.96191,-12.87746 -1.18375,-1.52041 -11.04913,-20.59987 -21.92306,-42.3988 -10.87393,-21.79893 -19.92063,-39.63442 -20.10377,-39.63442 -0.35633,0 -25.96534,53.10158 -25.95237,53.81355 0.005,0.23305 8.01619,0.42373 17.80433,0.42373 h 17.79661 v 2.73449 c 0,3.8829 -1.84725,10.60785 -4.24686,15.46084 -5.46557,11.05359 -16.15583,19.62447 -28.02652,22.47021 -4.46668,1.07078 -6.64267,1.13467 -38.7716,1.13841 l -34.03932,0.004 z"
     id="path3777"
     inkscape:connector-curvature="0" />
  <path
     style="opacity:0;vector-effect:none;fill:#ff0000;fill-opacity:1;stroke-width:0.10188421;stroke-linecap:butt;stroke-linejoin:miter;stroke-miterlimit:4;stroke-dasharray:none;stroke-dashoffset:0;stroke-opacity:1"
     d="m 164.85793,157.61488 c 26.17883,-52.35875 47.72569,-95.197734 47.88192,-95.197734 0.15622,0 21.70309,42.838984 47.88191,95.197734 l 47.59786,95.19774 -13.41785,-0.004 c -11.44757,-0.003 -14.10792,-0.16938 -18.11723,-1.13055 -8.83861,-2.11891 -17.57305,-7.24038 -21.96191,-12.87746 -1.18375,-1.52041 -11.04913,-20.59987 -21.92306,-42.3988 -10.87393,-21.79893 -19.92063,-39.63442 -20.10377,-39.63442 -0.35633,0 -25.96534,53.10158 -25.95237,53.81355 0.005,0.23305 8.01619,0.42373 17.80433,0.42373 h 17.79661 v 2.73449 c 0,3.8829 -1.84725,10.60785 -4.24686,15.46084 -5.46557,11.05359 -16.15583,19.62447 -28.02652,22.47021 -4.46668,1.07078 -6.64267,1.13467 -38.7716,1.13841 l -34.03932,0.004 z"
     id="path3779"
     inkscape:connector-curvature="0" />
  <path
     style="opacity:0;vector-effect:none;fill:#ff0000;fill-opacity:1;stroke-width:0.10188421;stroke-linecap:butt;stroke-linejoin:miter;stroke-miterlimit:4;stroke-dasharray:none;stroke-dashoffset:0;stroke-opacity:1"
     d="m 164.85793,157.61488 c 26.17883,-52.35875 47.72569,-95.197734 47.88192,-95.197734 0.15622,0 21.70309,42.838984 47.88191,95.197734 l 47.59786,95.19774 -13.41785,-0.004 c -11.44757,-0.003 -14.10792,-0.16938 -18.11723,-1.13055 -8.83861,-2.11891 -17.57305,-7.24038 -21.96191,-12.87746 -1.18375,-1.52041 -11.04913,-20.59987 -21.92306,-42.3988 -10.87393,-21.79893 -19.92063,-39.63442 -20.10377,-39.63442 -0.35633,0 -25.96534,53.10158 -25.95237,53.81355 0.005,0.23305 8.01619,0.42373 17.80433,0.42373 h 17.79661 v 2.73449 c 0,3.8829 -1.84725,10.60785 -4.24686,15.46084 -5.46557,11.05359 -16.15583,19.62447 -28.02652,22.47021 -4.46668,1.07078 -6.64267,1.13467 -38.7716,1.13841 l -34.03932,0.004 z"
     id="path3781"
     inkscape:connector-curvature="0" />
  <path
     style="opacity:0;vector-effect:none;fill:#5599ff;fill-opacity:1;stroke-width:0.10188421;stroke-linecap:butt;stroke-linejoin:miter;stroke-miterlimit:4;stroke-dasharray:none;stroke-dashoffset:0;stroke-opacity:1"
     d="m 143.38901,140.10076 c 26.17882,-52.358756 47.72568,-95.197737 47.88191,-95.197737 0.15623,0 21.70309,42.838981 47.88191,95.197737 l 47.59787,95.19774 -13.41786,-0.004 c -11.44757,-0.003 -14.10792,-0.16938 -18.11723,-1.13055 -8.8386,-2.11892 -17.57304,-7.24039 -21.96191,-12.87746 -1.18375,-1.52041 -11.04913,-20.59987 -21.92306,-42.39881 -10.87392,-21.79893 -19.92062,-39.63442 -20.10377,-39.63442 -0.35633,0 -25.96534,53.10159 -25.95237,53.81356 0.005,0.23305 8.01619,0.42373 17.80433,0.42373 h 17.79661 v 2.73448 c 0,3.88291 -1.84724,10.60786 -4.24686,15.46085 -5.46557,11.05358 -16.15582,19.62447 -28.02651,22.4702 -4.46669,1.07079 -6.64268,1.13468 -38.7716,1.13842 l -34.039327,0.004 z"
     id="path4588"
     inkscape:connector-curvature="0" />
  <path
     style="opacity:0;vector-effect:none;fill:#ff0000;fill-opacity:1;stroke:#5f8dd3;stroke-width:0.10188421;stroke-linecap:butt;stroke-linejoin:miter;stroke-miterlimit:4;stroke-dasharray:none;stroke-dashoffset:0;stroke-opacity:1"
     d="m 191.27148,44.903019 c -0.0195,0 -0.37404,0.669718 -1.0293,1.94336 -1.96576,3.820924 -6.64535,13.080542 -13.15429,26.021484 -8.6786,17.25459 -20.60981,41.053047 -33.69922,67.232427 l -47.597659,95.19726 34.039059,-0.004 c 12.04835,-0.001 19.88456,-0.01 25.20899,-0.0781 1.77481,-0.0228 3.27117,-0.0523 4.55078,-0.0898 2.55921,-0.0749 4.25376,-0.18338 5.58789,-0.33985 1.33414,-0.15663 2.30716,-0.36121 3.42383,-0.6289 1.48383,-0.35572 2.9496,-0.80177 4.38867,-1.33008 0.71896,-0.26394 1.4319,-0.54887 2.13672,-0.85352 0.22427,-0.0969 0.4433,-0.20762 0.66601,-0.30859 1.17822,-0.53415 2.33985,-1.11184 3.46875,-1.75391 0.67035,-0.38126 1.33211,-0.78201 1.98243,-1.19922 7.6e-4,-4.8e-4 0.001,-0.001 0.002,-0.002 3.2548,-2.08838 6.24677,-4.61637 8.85156,-7.48633 3.3e-4,-3.6e-4 -3.3e-4,-0.002 0,-0.002 2.60502,-2.87039 4.82326,-6.08091 6.53125,-9.53516 0.89961,-1.81936 1.72233,-3.90282 2.39844,-6 1.9e-4,-6e-4 -1.9e-4,-0.001 0,-0.002 1.12703,-3.49628 1.84765,-7.03217 1.84765,-9.45898 v -2.73438 h -17.79687 c -7.33986,0 -13.67968,-0.10786 -16.39453,-0.25977 -8.4e-4,-4e-5 -0.001,5e-5 -0.002,0 -0.0339,-0.002 -0.0454,-0.004 -0.0781,-0.006 -0.84162,-0.0491 -1.32692,-0.10213 -1.32812,-0.15821 -8.1e-4,-0.0445 0.0982,-0.29462 0.28515,-0.72265 2.05625,-4.70849 14.71973,-31.06213 21.45899,-44.78321 1.83806,-3.74205 3.23601,-6.54363 3.85742,-7.71093 5e-4,-9.5e-4 -5.1e-4,-0.001 0,-0.002 0.20713,-0.38911 0.32734,-0.5957 0.34961,-0.5957 0.0229,0 0.18457,0.27832 0.4707,0.80859 5.2e-4,9.6e-4 -5.1e-4,0.001 0,0.002 0.28611,0.53025 0.69721,1.31071 1.21875,2.3164 3.13083,6.03694 10.25773,20.15682 18.41406,36.50781 4.51719,9.0556 8.69332,17.28479 12.3125,24.3379 0.73693,1.43613 1.61096,3.16481 2.28321,4.46484 2.3e-4,4.5e-4 -2.4e-4,0.001 0,0.002 1.98645,3.84151 3.67052,7.04988 4.93164,9.39258 1.26159,2.34378 2.1005,3.82101 2.39648,4.20117 0.27431,0.35232 0.56583,0.7031 0.87305,1.05078 0.30721,0.3477 0.6307,0.69135 0.96875,1.03321 1.01443,1.02586 2.1611,2.0233 3.41601,2.97461 2.09083,1.58498 4.47609,3.04418 7.02735,4.30078 0.51022,0.25136 1.0264,0.49393 1.54883,0.72851 0.52298,0.2348 1.05084,0.46097 1.58398,0.67774 0.53257,0.21658 1.06874,0.42372 1.60938,0.62109 5.7e-4,2.1e-4 0.001,-2.1e-4 0.002,0 1.62134,0.59183 3.27499,1.09503 4.93164,1.49219 0.65004,0.15584 1.27026,0.28365 1.89258,0.40039 0.17986,0.0337 0.37636,0.0669 0.55859,0.0977 0.64118,0.10795 1.29637,0.20644 2.02539,0.28124 0.72069,0.074 1.54861,0.12678 2.44336,0.17383 0.27901,0.0147 0.5891,0.0306 0.89063,0.043 0.95177,0.0389 1.98021,0.0719 3.21093,0.0918 1.92187,0.031 4.23381,0.0403 7.09571,0.041 l 13.41796,0.004 -47.59765,-95.19726 c -19.63412,-39.26907 -36.66253,-73.182772 -44.01563,-87.685552 -2.45093,-4.834216 -3.82617,-7.511719 -3.86523,-7.511719 z"
     id="path4590"
     inkscape:connector-curvature="0" />
  <path
     style="opacity:0;vector-effect:none;fill:#ff0000;fill-opacity:1;stroke-width:0.10188421;stroke-linecap:butt;stroke-linejoin:miter;stroke-miterlimit:4;stroke-dasharray:none;stroke-dashoffset:0;stroke-opacity:1"
     d="m 143.38901,140.10076 c 26.17882,-52.358756 47.72568,-95.197737 47.88191,-95.197737 0.15623,0 21.70309,42.838981 47.88191,95.197737 l 47.59787,95.19774 -13.41786,-0.004 c -11.44757,-0.003 -14.10792,-0.16938 -18.11723,-1.13055 -8.8386,-2.11892 -17.57304,-7.24039 -21.96191,-12.87746 -1.18375,-1.52041 -11.04913,-20.59987 -21.92306,-42.39881 -10.87392,-21.79893 -19.92062,-39.63442 -20.10377,-39.63442 -0.35633,0 -25.96534,53.10159 -25.95237,53.81356 0.005,0.23305 8.01619,0.42373 17.80433,0.42373 h 17.79661 v 2.73448 c 0,3.88291 -1.84724,10.60786 -4.24686,15.46085 -5.46557,11.05358 -16.15582,19.62447 -28.02651,22.4702 -4.46669,1.07079 -6.64268,1.13468 -38.7716,1.13842 l -34.039327,0.004 z"
     id="path4598"
     inkscape:connector-curvature="0" />
  <path
     style="opacity:0;vector-effect:none;fill:#87aade;fill-opacity:1;stroke-width:0.10188421;stroke-linecap:butt;stroke-linejoin:miter;stroke-miterlimit:4;stroke-dasharray:none;stroke-dashoffset:0;stroke-opacity:1"
     d="M 36.597656 -29.849609 C 32.760027 -29.900639 28.899307 -29.587825 26.550781 -28.890625 C 19.391544 -26.765282 13.637887 -23.090886 6.25 -15.927734 L 0.8828125 -10.724609 L -9.8515625 -10.410156 C -21.698217 -10.063794 -25.648547 -9.358997 -31.076172 -6.6191406 C -35.486594 -4.3927673 -42.587369 2.4006963 -45.322266 7.0078125 C -48.963944 13.14246 -49.780223 16.644736 -50.107422 27.542969 L -50.396484 37.148438 L -54.939453 41.949219 C -61.492198 48.875185 -63.701646 51.829005 -66.136719 56.921875 C -69.992544 64.986191 -70.95594 72.094369 -69.203125 79.525391 C -65.275258 96.177504 -50.034105 109.70856 -23.412109 120.17383 L -16.066406 123.06055 L -10.416016 134.39062 C -4.2507895 146.75592 -3.2641571 148.47987 0.54492188 153.53125 C 8.4457578 164.00888 17.827778 170.89755 27.929688 173.63672 C 36.155812 175.86725 46.122165 174.03603 54.669922 168.72461 C 56.908357 167.33369 61.3606 163.82477 64.564453 160.92773 L 70.390625 155.66211 L 77.101562 155.24219 C 91.679105 154.33135 98.742268 151.66122 106.2832 144.21094 C 114.01748 136.56966 116.52331 129.49269 117.33398 113.00391 L 117.66016 106.375 L 123.96484 99.617188 C 134.68974 88.118927 135.83665 85.208342 135.52734 70.285156 L 135.33203 60.876953 L 133.42578 57.205078 C 127.72623 46.228898 116.39521 36.479203 99.751953 28.230469 C 95.712405 26.228384 91.413012 24.237639 90.197266 23.806641 C 87.638351 22.899473 86.671012 21.514928 84.130859 15.121094 C 75.2903 -7.1315169 61.004429 -23.738811 46.5 -28.625 C 44.248831 -29.383363 40.435286 -29.798579 36.597656 -29.849609 z M 44.234375 -16.130859 C 56.171608 -15.911761 67.863257 -5.9009514 76.611328 11.742188 C 78.618995 15.791255 80.261719 19.286235 80.261719 19.509766 C 80.261719 20.241991 76.872071 19.807427 68.113281 17.953125 C 59.540739 16.138253 56.599403 14.914982 47.339844 9.3125 C 42.918251 6.6372187 35.886697 2.6389314 31.714844 0.42773438 C 27.542997 -1.7834628 23.857239 -4.0459648 23.523438 -4.5996094 C 23.01302 -5.4461941 23.410121 -6.0538813 26.023438 -8.4199219 C 30.34786 -12.335165 37.151044 -15.612934 41.84375 -16.042969 C 42.64095 -16.116023 43.438559 -16.145466 44.234375 -16.130859 z M -4.7832031 -3.8027344 C -4.4638587 -3.8035657 -4.247103 -3.7646808 -4.1621094 -3.6796875 C -3.9898721 -3.5074451 -5.1800644 -0.73325089 -6.8066406 2.484375 C -8.4332168 5.7020008 -10.936115 11.130749 -12.367188 14.548828 L -14.96875 20.763672 L -19.189453 22.257812 C -21.511164 23.079484 -25.127151 24.401506 -27.224609 25.197266 L -31.039062 26.644531 L -31.039062 22.9375 C -31.039062 18.152455 -29.753268 13.252525 -27.240234 8.4589844 C -24.864204 3.9267767 -23.09619 2.3156489 -17.679688 -0.26367188 C -14.345914 -1.8512051 -7.018614 -3.7969152 -4.7832031 -3.8027344 z M 19.326172 1.6152344 C 19.521648 1.6076492 19.733368 1.6099545 19.970703 1.6171875 C 22.127635 1.6829214 41.139319 10.760261 42.464844 12.357422 C 43.000426 13.002708 43.001676 13.334192 42.46875 13.867188 C 41.980077 14.355924 37.46966 14.605847 26.566406 14.75 C 12.524367 14.935652 11.31627 14.87437 10.96875 13.96875 C 10.537349 12.844526 12.0319 9.8836217 15.537109 4.9179688 C 17.452573 2.2044367 17.957836 1.6683304 19.326172 1.6152344 z M 53.107422 19.748047 L 58.351562 24.013672 C 64.878731 29.323123 80.569351 45.284309 84.992188 51.113281 L 88.300781 55.472656 L 88.019531 74.841797 C 87.725153 95.149208 87.428582 97.712069 85.183594 99.294922 C 82.413543 101.24798 67.69609 104.81906 57.125 106.10352 C 53.536536 106.53955 45.261751 107.1554 38.736328 107.47266 C 32.210904 107.78991 25.066352 108.05059 22.859375 108.05078 L 18.845703 108.05078 L 9.4785156 99.152344 L 0.109375 90.255859 L 0.072265625 77.201172 C 0.029943595 62.435545 0.66554816 52.691309 2.3222656 42.732422 C 3.821096 33.722631 6.470746 23.964802 7.7695312 22.666016 C 9.545243 20.890308 13.811143 20.4696 33.775391 20.103516 L 53.107422 19.748047 z M 67.082031 23.175781 L 69.576172 23.591797 C 73.440262 24.235989 79.256766 26.148182 80.898438 27.314453 C 82.842313 28.695408 84.020417 31.275047 85.107422 36.53125 C 85.59536 38.890668 85.906832 41.264939 85.800781 41.808594 C 85.661611 42.522029 83.382452 40.516261 77.611328 34.597656 C 73.213622 30.087566 69.046518 25.673082 68.349609 24.787109 L 67.082031 23.175781 z M -17.714844 27.931641 C -16.954602 27.832482 -16.93482 28.149677 -17.134766 28.814453 C -17.815903 31.079092 -19.222185 38.165205 -20.302734 44.775391 C -20.93767 48.659572 -21.600006 52.536105 -21.773438 53.390625 C -22.358537 56.273495 -23.421968 55.277087 -25.544922 49.859375 C -27.888657 43.878234 -29.382647 39.012729 -29.724609 36.244141 C -30.142493 32.860864 -29.075648 31.838759 -22.736328 29.544922 C -19.976317 28.546233 -18.475085 28.0308 -17.714844 27.931641 z M 90.214844 30.109375 C 91.250714 30.02621 93.435568 30.967056 96.951172 32.972656 C 115.77845 43.713334 123.83486 55.011282 121.67188 67.638672 C 120.99113 71.612852 117.77365 78.586352 115.15625 81.761719 C 112.14606 85.413594 111.21964 84.616075 105.71289 73.642578 C 104.1164 70.4612 101.03542 64.959907 98.867188 61.417969 C 94.222482 53.830568 92.90415 50.935397 92.410156 47.228516 C 92.083302 44.775867 90.254621 34.617699 89.552734 31.357422 C 89.38497 30.578155 89.593322 30.159274 90.214844 30.109375 z M -48.734375 46.480469 C -48.612829 46.522635 -48.552734 46.710157 -48.552734 47.042969 C -48.552734 47.358681 -47.380156 50.855613 -45.947266 54.8125 C -41.62004 66.762008 -38.011605 73.65401 -27.183594 90.646484 C -25.264467 93.65819 -23.693359 96.39006 -23.693359 96.71875 C -23.693359 97.904501 -25.758646 97.265781 -30.480469 94.617188 C -42.144808 88.074352 -49.24106 81.822793 -53.072266 74.714844 C -55.001235 71.136081 -55.048232 70.8945 -55.007812 64.832031 C -54.959781 57.627568 -54.30091 54.877726 -51.458984 50.015625 C -50.009221 47.535298 -49.099014 46.35397 -48.734375 46.480469 z M 171.78711 47.599609 C 171.76758 47.599609 171.41307 48.269327 170.75781 49.542969 C 168.79205 53.363893 164.11246 62.623511 157.60352 75.564453 C 148.92492 92.819043 136.99371 116.6175 123.9043 142.79688 L 76.306641 237.99414 L 110.3457 237.99023 C 117.34882 237.98942 122.61849 237.98274 127.10938 237.9668 C 130.26761 237.95501 133.36466 237.94018 135.55469 237.91211 C 137.3295 237.88936 138.82586 237.85984 140.10547 237.82227 C 142.66468 237.74733 144.35923 237.63889 145.69336 237.48242 C 147.0275 237.32579 148.00052 237.12121 149.11719 236.85352 C 150.60102 236.4978 152.06679 236.05175 153.50586 235.52344 C 154.22482 235.2595 154.93776 234.97457 155.64258 234.66992 C 155.76165 234.61845 155.87864 234.56156 155.99609 234.50586 C 156.10095 234.45937 156.20409 234.4087 156.30859 234.36133 C 156.33298 234.35027 156.35649 234.33727 156.38086 234.32617 C 156.9279 234.07692 157.47287 233.82373 158.00977 233.55078 C 158.60586 233.25162 159.19639 232.93784 159.77734 232.60742 C 160.44769 232.22616 161.10945 231.82541 161.75977 231.4082 L 161.76172 231.40625 C 162.50016 230.93245 163.2198 230.43008 163.92969 229.91211 C 164.17385 229.73399 164.41178 229.54839 164.65234 229.36523 C 165.12038 229.00882 165.58142 228.64451 166.03516 228.26953 C 166.29494 228.0549 166.55177 227.83773 166.80664 227.61719 C 167.25233 227.23144 167.6872 226.8349 168.11719 226.43164 C 168.33739 226.22519 168.56143 226.02341 168.77734 225.8125 C 169.35821 225.24495 169.92634 224.663 170.47461 224.06445 C 170.51967 224.01526 170.56845 223.96932 170.61328 223.91992 L 170.61328 223.91797 C 171.21021 223.26023 171.78112 222.58107 172.33594 221.88867 C 172.50599 221.67648 172.66611 221.45748 172.83203 221.24219 C 173.20976 220.75196 173.57803 220.25576 173.93359 219.75 C 174.20088 219.36989 174.4684 218.99005 174.72266 218.60156 C 174.78626 218.50436 174.85129 218.40826 174.91406 218.31055 C 175.27757 217.74481 175.62609 217.17018 175.96094 216.58789 C 176.03203 216.46423 176.10016 216.33922 176.16992 216.21484 C 176.50866 215.61109 176.83796 215.00282 177.14453 214.38281 C 177.4194 213.82693 177.68484 213.24063 177.94336 212.64258 C 178.00914 212.49038 178.07216 212.33599 178.13672 212.18164 C 178.3322 211.71441 178.52004 211.24042 178.70312 210.75781 C 178.76333 210.59909 178.82408 210.44312 178.88281 210.2832 C 179.11378 209.65453 179.3372 209.02108 179.54297 208.38281 L 179.54297 208.38086 C 179.80255 207.57557 180.03339 206.77406 180.24609 205.97852 C 180.30804 205.74684 180.35847 205.52423 180.41602 205.29492 C 180.55656 204.73508 180.6845 204.18708 180.79688 203.64844 C 180.85029 203.39235 180.89872 203.14414 180.94531 202.89453 C 181.04321 202.37047 181.12173 201.87094 181.1875 201.38281 C 181.2198 201.14309 181.2611 200.89527 181.28516 200.66602 C 181.29725 200.55084 181.30645 200.44043 181.31641 200.32812 C 181.3604 199.83173 181.39062 199.35433 181.39062 198.92188 L 181.39062 196.1875 L 163.59375 196.1875 C 160.33448 196.1875 157.4085 196.16 154.77344 196.12305 C 153.74802 196.10865 152.7178 196.09499 151.83594 196.07617 C 151.45349 196.06796 151.04889 196.05974 150.69727 196.05078 C 149.27683 196.01472 148.04162 195.97379 147.21484 195.92773 C 147.17666 195.92561 147.1559 195.92402 147.11914 195.92188 C 147.06288 195.91859 147.04132 195.91543 146.98828 195.91211 C 146.65245 195.89104 146.34017 195.86819 146.14844 195.8457 C 145.91739 195.81861 145.79163 195.79232 145.79102 195.76367 C 145.79021 195.71917 145.88923 195.46905 146.07617 195.04102 C 146.54853 193.95939 147.69252 191.50916 149.08398 188.55859 C 149.24694 188.21301 149.34306 188.00563 149.51562 187.64062 C 149.90462 186.81796 150.4645 185.65142 150.89648 184.74219 C 152.8213 180.69103 155.07467 175.98196 157.45312 171.04102 C 158.20931 169.4703 158.95295 167.93064 159.71094 166.36133 C 162.53384 160.51776 165.38238 154.64057 167.53516 150.25781 C 168.62989 148.02907 169.49577 146.29015 170.20703 144.875 C 170.6871 143.9203 171.14236 143.01691 171.39258 142.54688 L 171.39258 142.54492 C 171.59971 142.15581 171.71992 141.94922 171.74219 141.94922 C 171.76508 141.94922 171.92676 142.22754 172.21289 142.75781 L 172.21289 142.75977 C 172.499 143.29002 172.9101 144.07048 173.43164 145.07617 C 173.48279 145.1748 173.59126 145.38926 173.64453 145.49219 C 175.03985 148.18737 177.31878 152.67498 179.93945 157.86133 C 180.58928 159.14734 181.262 160.48193 181.96875 161.88477 C 184.93035 167.76392 188.21406 174.30364 191.8457 181.58398 C 194.22283 186.34941 196.48581 190.84677 198.64258 195.10352 C 200.64635 199.06545 202.4259 202.54575 204.1582 205.92188 C 204.89513 207.35801 205.76916 209.08669 206.44141 210.38672 L 206.44141 210.38867 C 208.42786 214.23018 210.11193 217.43855 211.37305 219.78125 C 212.63464 222.12503 213.47355 223.60226 213.76953 223.98242 C 214.04384 224.33474 214.33536 224.68552 214.64258 225.0332 C 214.94979 225.3809 215.27328 225.72455 215.61133 226.06641 C 216.07011 226.53036 216.56311 226.98696 217.07422 227.4375 C 217.18391 227.53431 217.29429 227.63046 217.40625 227.72656 C 217.92612 228.1723 218.46174 228.61225 219.02734 229.04102 C 219.50348 229.40195 219.99871 229.75461 220.50391 230.10156 C 220.6735 230.21805 220.84885 230.33053 221.02148 230.44531 C 221.36542 230.67394 221.71302 230.89966 222.06836 231.12109 C 222.27757 231.25151 222.48826 231.38004 222.70117 231.50781 C 223.03891 231.71044 223.38208 231.9079 223.72852 232.10352 C 223.93834 232.22202 224.14462 232.34318 224.35742 232.45898 C 224.91471 232.76221 225.47906 233.05828 226.05469 233.3418 C 226.56491 233.59316 227.08109 233.83573 227.60352 234.07031 C 228.1265 234.30511 228.65436 234.53128 229.1875 234.74805 C 229.72007 234.96463 230.25624 235.17177 230.79688 235.36914 L 230.79883 235.36914 C 231.51329 235.62992 232.23464 235.86507 232.95898 236.08984 C 233.15556 236.15087 233.35174 236.20933 233.54883 236.26758 C 234.27443 236.48194 235.00107 236.68647 235.73047 236.86133 C 236.37909 237.01682 236.99821 237.1432 237.61914 237.25977 C 237.6205 237.26002 237.62169 237.26146 237.62305 237.26172 C 237.80291 237.29541 237.99941 237.32865 238.18164 237.35938 C 238.82282 237.46733 239.47801 237.56582 240.20703 237.64062 C 240.92772 237.71458 241.75564 237.7674 242.65039 237.81445 C 242.82184 237.82347 243.00579 237.8317 243.18555 237.83984 C 243.30611 237.84561 243.42066 237.85247 243.54102 237.85742 C 243.55144 237.85785 243.56572 237.85893 243.57617 237.85938 C 244.51875 237.89754 245.53701 237.9296 246.75195 237.94922 C 248.67382 237.98026 250.98576 237.98948 253.84766 237.99023 L 267.26562 237.99414 L 219.66797 142.79688 C 207.73519 118.93081 197.7255 98.973316 189.30469 82.21875 C 183.733 71.132041 178.58857 60.902558 175.65234 55.111328 C 173.20131 50.277068 171.82617 47.599609 171.78711 47.599609 z M 94.53125 66.521484 C 95.390002 66.45948 97.960631 70.670492 101.76562 78.390625 C 106.34793 87.687873 106.41177 88.180282 103.33789 90.658203 C 101.98748 91.746807 99.71662 93.307884 98.291016 94.128906 C 93.095705 97.120946 92.996746 96.842685 93.486328 80.490234 C 93.706967 73.120777 94.11053 66.86511 94.382812 66.589844 C 94.4247 66.547498 94.474 66.525618 94.53125 66.521484 z M 108.02148 113.30273 C 108.50084 113.33287 108.71246 113.57377 108.86328 113.9668 C 109.44873 115.49247 107.30641 121.59118 104.94141 125.13281 C 102.09072 129.40173 97.653636 132.54306 91.910156 134.35742 C 86.440173 136.08539 82.803927 136.64913 82.308594 135.84766 C 81.893825 135.17655 84.2636 128.28393 86.294922 124.25195 C 87.318357 122.22054 88.199424 121.30931 89.755859 120.66992 C 90.904283 120.19814 94.95077 118.44372 98.748047 116.77148 C 104.61546 114.1876 106.9669 113.23644 108.02148 113.30273 z M 77.666016 125.03125 C 78.651971 125.03572 79.130859 125.20789 79.130859 125.54492 C 79.130859 126.97387 76.563947 132.70363 75.404297 133.86328 C 74.125422 135.14216 72.045853 135.44626 69.244141 134.76367 C 65.567752 133.86798 57.74187 131.10429 56.591797 130.29492 C 55.300927 129.38646 55.285821 129.30757 56.275391 128.58398 C 56.845753 128.16692 58.245906 127.82617 59.386719 127.82617 C 60.527538 127.82617 64.582207 127.1909 68.396484 126.41406 C 72.972797 125.48202 76.022756 125.0238 77.666016 125.03125 z M 77.050781 125.56836 C 76.175321 125.56955 72.280664 126.19842 68.396484 126.9668 C 64.512303 127.73518 60.296177 128.36995 59.027344 128.37695 C 54.006622 128.4057 55.870963 129.99473 64.089844 132.69141 C 72.902155 135.5828 74.97524 135.16469 77.058594 130.07812 C 78.794471 125.84 78.79464 125.56636 77.050781 125.56836 z M 12.394531 131.21484 C 12.666531 131.21484 16.289347 133.28705 20.445312 135.81836 C 30.253526 141.79233 40.674852 146.84494 50.876953 150.57227 C 56.690625 152.69629 59.119838 153.84681 59.253906 154.54297 C 59.492375 155.78125 52.587834 159.17769 48.121094 160.01953 C 44.672609 160.66949 43.123553 160.66697 39.783203 160.00586 C 34.468327 158.95396 26.776763 153.70365 21.755859 147.69922 C 14.960989 139.57332 10.214847 131.21484 12.394531 131.21484 z "
     id="path4600" />
  <path
     style="opacity:0;vector-effect:none;fill:#ff0000;fill-opacity:1;stroke-width:0.10188421;stroke-linecap:butt;stroke-linejoin:miter;stroke-miterlimit:4;stroke-dasharray:none;stroke-dashoffset:0;stroke-opacity:1"
     d="m 143.38901,140.10076 c 26.17882,-52.358756 47.72568,-95.197737 47.88191,-95.197737 0.15623,0 21.70309,42.838981 47.88191,95.197737 l 47.59787,95.19774 -13.41786,-0.004 c -11.44757,-0.003 -14.10792,-0.16938 -18.11723,-1.13055 -8.8386,-2.11892 -17.57304,-7.24039 -21.96191,-12.87746 -1.18375,-1.52041 -11.04913,-20.59987 -21.92306,-42.39881 -10.87392,-21.79893 -19.92062,-39.63442 -20.10377,-39.63442 -0.35633,0 -25.96534,53.10159 -25.95237,53.81356 0.005,0.23305 8.01619,0.42373 17.80433,0.42373 h 17.79661 v 2.73448 c 0,3.88291 -1.84724,10.60786 -4.24686,15.46085 -5.46557,11.05358 -16.15582,19.62447 -28.02651,22.4702 -4.46669,1.07079 -6.64268,1.13468 -38.7716,1.13842 l -34.039327,0.004 z"
     id="path4617"
     inkscape:connector-curvature="0" />
  <path
     style="opacity:0;vector-effect:none;fill:#ff0000;fill-opacity:1;stroke-width:0.10188421;stroke-linecap:butt;stroke-linejoin:miter;stroke-miterlimit:4;stroke-dasharray:none;stroke-dashoffset:0;stroke-opacity:1"
     d="m 143.38901,140.10076 c 26.17882,-52.358756 47.72568,-95.197737 47.88191,-95.197737 0.15623,0 21.70309,42.838981 47.88191,95.197737 l 47.59787,95.19774 -13.41786,-0.004 c -11.44757,-0.003 -14.10792,-0.16938 -18.11723,-1.13055 -8.8386,-2.11892 -17.57304,-7.24039 -21.96191,-12.87746 -1.18375,-1.52041 -11.04913,-20.59987 -21.92306,-42.39881 -10.87392,-21.79893 -19.92062,-39.63442 -20.10377,-39.63442 -0.35633,0 -25.96534,53.10159 -25.95237,53.81356 0.005,0.23305 8.01619,0.42373 17.80433,0.42373 h 17.79661 v 2.73448 c 0,3.88291 -1.84724,10.60786 -4.24686,15.46085 -5.46557,11.05358 -16.15582,19.62447 -28.02651,22.4702 -4.46669,1.07079 -6.64268,1.13468 -38.7716,1.13842 l -34.039327,0.004 z"
     id="path4619"
     inkscape:connector-curvature="0" />
  <path
     style="opacity:0;fill:#00112b;stroke:#5f8dd3;stroke-width:0.56497175"
     d="m 143.38901,140.10076 c 26.17882,-52.358756 47.72568,-95.197737 47.88191,-95.197737 0.15623,0 21.70309,42.838981 47.88191,95.197737 l 47.59787,95.19774 -13.41786,-0.004 c -11.44757,-0.003 -14.10792,-0.16938 -18.11723,-1.13055 -8.8386,-2.11892 -17.57304,-7.24039 -21.96191,-12.87746 -1.18375,-1.52041 -11.04913,-20.59987 -21.92306,-42.39881 -10.87392,-21.79893 -19.92062,-39.63442 -20.10377,-39.63442 -0.35633,0 -25.96534,53.10159 -25.95237,53.81356 0.005,0.23305 8.01619,0.42373 17.80433,0.42373 h 17.79661 v 2.73448 c 0,3.88291 -1.84724,10.60786 -4.24686,15.46085 -5.46557,11.05358 -16.15582,19.62447 -28.02651,22.4702 -4.46669,1.07079 -6.64268,1.13468 -38.7716,1.13842 l -34.039327,0.004 z"
     id="path4621"
     inkscape:connector-curvature="0" />
  <path
     style="opacity:0;fill:#00112b;stroke:#5f8dd3;stroke-width:0.56497175"
     d="m 143.38901,140.10076 c 26.17882,-52.358756 47.72568,-95.197737 47.88191,-95.197737 0.15623,0 21.70309,42.838981 47.88191,95.197737 l 47.59787,95.19774 -13.41786,-0.004 c -11.44757,-0.003 -14.10792,-0.16938 -18.11723,-1.13055 -8.8386,-2.11892 -17.57304,-7.24039 -21.96191,-12.87746 -1.18375,-1.52041 -11.04913,-20.59987 -21.92306,-42.39881 -10.87392,-21.79893 -19.92062,-39.63442 -20.10377,-39.63442 -0.35633,0 -25.96534,53.10159 -25.95237,53.81356 0.005,0.23305 8.01619,0.42373 17.80433,0.42373 h 17.79661 v 2.73448 c 0,3.88291 -1.84724,10.60786 -4.24686,15.46085 -5.46557,11.05358 -16.15582,19.62447 -28.02651,22.4702 -4.46669,1.07079 -6.64268,1.13468 -38.7716,1.13842 l -34.039327,0.004 z"
     id="path4623"
     inkscape:connector-curvature="0" />
  <path
     style="opacity:0;fill:#00112b;stroke:#5f8dd3;stroke-width:0.56497175"
     d="m 143.38901,140.10076 c 26.17882,-52.358756 47.72568,-95.197737 47.88191,-95.197737 0.15623,0 21.70309,42.838981 47.88191,95.197737 l 47.59787,95.19774 -13.41786,-0.004 c -11.44757,-0.003 -14.10792,-0.16938 -18.11723,-1.13055 -8.8386,-2.11892 -17.57304,-7.24039 -21.96191,-12.87746 -1.18375,-1.52041 -11.04913,-20.59987 -21.92306,-42.39881 -10.87392,-21.79893 -19.92062,-39.63442 -20.10377,-39.63442 -0.35633,0 -25.96534,53.10159 -25.95237,53.81356 0.005,0.23305 8.01619,0.42373 17.80433,0.42373 h 17.79661 v 2.73448 c 0,3.88291 -1.84724,10.60786 -4.24686,15.46085 -5.46557,11.05358 -16.15582,19.62447 -28.02651,22.4702 -4.46669,1.07079 -6.64268,1.13468 -38.7716,1.13842 l -34.039327,0.004 z"
     id="path4625"
     inkscape:connector-curvature="0" />
  <path
     style="opacity:0;fill:#00112b;stroke:#5f8dd3;stroke-width:0.56497175"
     d="m 143.38901,140.10076 c 26.17882,-52.358756 47.72568,-95.197737 47.88191,-95.197737 0.15623,0 21.70309,42.838981 47.88191,95.197737 l 47.59787,95.19774 -13.41786,-0.004 c -11.44757,-0.003 -14.10792,-0.16938 -18.11723,-1.13055 -8.8386,-2.11892 -17.57304,-7.24039 -21.96191,-12.87746 -1.18375,-1.52041 -11.04913,-20.59987 -21.92306,-42.39881 -10.87392,-21.79893 -19.92062,-39.63442 -20.10377,-39.63442 -0.35633,0 -25.96534,53.10159 -25.95237,53.81356 0.005,0.23305 8.01619,0.42373 17.80433,0.42373 h 17.79661 v 2.73448 c 0,3.88291 -1.84724,10.60786 -4.24686,15.46085 -5.46557,11.05358 -16.15582,19.62447 -28.02651,22.4702 -4.46669,1.07079 -6.64268,1.13468 -38.7716,1.13842 l -34.039327,0.004 z"
     id="path4627"
     inkscape:connector-curvature="0" />
  <rect
     style="opacity:0;fill:#18151b;fill-opacity:0.99497483;stroke:#6065e5;stroke-width:2.45000005;stroke-miterlimit:4;stroke-dasharray:none;stroke-opacity:1"
     id="rect6200"
     width="105.64971"
     height="212.99434"
     x="216.38417"
     y="40.677963" />
  <rect
     style="opacity:0;fill:#18151b;fill-opacity:0.99497483;stroke:#6065e5;stroke-width:2.45000005;stroke-miterlimit:4;stroke-dasharray:none;stroke-opacity:1"
     id="rect6202"
     width="83.615822"
     height="197.74011"
     x="235.86855"
     y="37.981373"
     clip-path="none" />
  <rect
     style="opacity:0;fill:#18151b;fill-opacity:0.99497483;stroke:#6065e5;stroke-width:2.45000005;stroke-miterlimit:4;stroke-dasharray:none;stroke-opacity:1"
     id="rect6204"
     width="70.056496"
     height="123.72881"
     x="256.77249"
     y="61.145214" />
  <rect
     style="opacity:0;fill:#18151b;fill-opacity:0.99497483;stroke:#6065e5;stroke-width:2.55209708;stroke-miterlimit:4;stroke-dasharray:none;stroke-opacity:1"
     id="rect6214"
     width="112.59169"
     height="102.42197"
     x="132.99257"
     y="145.5975" />
  <rect
     style="opacity:0;fill:#18151b;fill-opacity:0.99497483;stroke:#6065e5;stroke-width:2.45000005;stroke-miterlimit:4;stroke-dasharray:none;stroke-opacity:1"
     id="rect6220"
     width="136.61128"
     height="139.23964"
     x="127.50584"
     y="110.60614" />
  <path
     style="fill:#6772e5;fill-opacity:1;stroke:#6065e5;stroke-width:2.45000005;stroke-miterlimit:4;stroke-dasharray:none;stroke-opacity:1"
     d="M 108.14907,259.85168 C 93.1049,254.53159 80.43799,240.4376 71.70727,219.30427 69.62281,214.25866 67.13614,209.88863 66.18136,209.5931 57.483034,206.90066 44.787971,201.09709 37.99137,196.706 9.953084,178.59119 4.924251,152.83837 25.25927,131.50451 l 7.390975,-7.754 v -9.2581 c 0,-12.59889 3.056731,-20.52822 10.909552,-28.30005 C 51.412514,78.42064 58.377186,76.00894 73.033,75.98649 l 10.89999,-0.0167 5.7613,-6.0261 c 3.51393,-3.67546 8.72367,-7.46944 13.35561,-9.72622 6.54463,-3.18868 8.7963,-3.69674 16.29006,-3.67569 7.27461,0.0204 9.79339,0.57048 15.41241,3.36565 12.77797,6.35639 25.76202,22.85869 32.77366,41.65425 1.67503,4.49011 3.62047,8.16195 4.32321,8.15966 0.70273,-0.002 6.5778,2.60025 13.05569,5.78344 13.8,6.78121 25.72943,16.93662 31.03835,26.42269 3.12955,5.59189 3.43087,7.08629 3.42796,17.00127 -0.003,12.99496 -1.86121,17.30289 -11.99238,27.81428 l -6.50342,6.74751 -0.19472,9.32317 c -0.27197,13.02155 -3.52112,21.32393 -11.3034,28.88299 -7.18525,6.97915 -13.72459,9.53149 -26.65606,10.40406 l -9.24949,0.62412 -6.35903,6.0891 c -12.15122,11.63546 -26.09967,15.58681 -38.96367,11.03769 z m 26.36214,-14.14846 c 2.16158,-0.73353 5.13855,-2.10454 6.61549,-3.04669 2.61404,-1.66753 2.44516,-1.79385 -6.35902,-4.75628 -10.71494,-3.60539 -23.815,-10.04336 -33.03527,-16.23505 -3.65643,-2.45541 -6.64806,-3.86891 -6.64806,-3.1411 0,2.9339 8.52876,14.9459 14.35119,20.21238 8.56211,7.74459 16.38157,9.91705 25.07567,6.96674 z m 44.71715,-26.36081 c 5.40544,-2.50376 9.613,-7.33336 11.65982,-13.38362 2.34927,-6.94431 1.85368,-7.08186 -8.39305,-2.32961 -5.3399,2.47654 -10.21289,4.50282 -10.82885,4.50282 -0.96199,0 -6.05454,11.93249 -6.05454,14.18654 0,1.29939 8.30494,-0.51578 13.61662,-2.97613 z m -18.81415,-2.06799 c 1.14994,-2.52378 1.78591,-4.89045 1.41327,-5.25923 -0.37263,-0.36878 -4.32881,0.15138 -8.79149,1.15593 -4.4627,1.00456 -9.44207,1.82645 -11.06528,1.82645 -5.20771,0 -3.16235,2.13934 4.2749,4.47127 10.60357,3.32474 11.73362,3.14971 14.1686,-2.19442 z m -10.411,-26.12816 c 5.72314,-1.23864 12.48682,-2.94602 15.03043,-3.79419 4.26668,-1.42272 4.68526,-1.94048 5.4062,-6.68683 0.42979,-2.82957 0.82,-12.56422 0.86714,-21.63251 l 0.0856,-16.48781 -4.46071,-5.82528 c -5.19672,-6.7865 -17.46209,-19.20808 -25.01315,-25.3318 l -5.26733,-4.27166 -17.60401,-0.064 c -9.68221,-0.0352 -20.01314,0.31678 -22.95761,0.78212 -5.34845,0.84526 -5.35535,0.85234 -7.18697,7.37599 -3.71688,13.23836 -5.38034,26.88846 -5.38034,44.14996 v 17.29572 l 9.42044,9.02757 9.42045,9.02757 18.61709,-0.65644 c 11.88933,-0.41921 22.37741,-1.47026 29.02275,-2.90848 z M 53.97246,174.66234 C 46.344981,163.46868 40.535454,152.15223 36.859135,141.32703 l -2.67459,-7.8755 -2.768475,4.43327 c -2.008531,3.21637 -2.868707,6.47751 -3.133636,11.88043 -0.323115,6.58957 0.04093,8.13494 3.161021,13.42006 2.030946,3.44017 6.098605,7.88543 9.59266,10.48313 6.048529,4.49687 16.508191,10.43409 18.381813,10.43409 0.542933,0 -1.907527,-4.24807 -5.445468,-9.44017 z m 130.05027,4.34598 c 2.59201,-1.6194 4.71274,-3.61892 4.71274,-4.44337 0,-2.50258 -10.7725,-23.20093 -11.11556,-21.35751 -0.17567,0.94402 -0.50704,8.04085 -0.73636,15.77073 -0.45998,15.50471 -0.81811,15.00154 7.13918,10.03015 z m 17.5292,-16.01843 c 6.55201,-11.30501 3.88875,-23.21796 -7.48638,-33.48725 -5.13894,-4.63935 -20.05749,-13.59286 -21.03568,-12.62477 -0.17072,0.16897 0.41336,3.64925 1.29796,7.73398 0.8846,4.08472 1.62663,8.82674 1.64897,10.5378 0.0223,1.71107 2.40876,6.73403 5.30313,11.16214 2.89439,4.42812 7.11979,11.92167 9.3898,16.65234 4.70929,9.81414 5.2085,9.81532 10.8822,0.0258 z M 64.95212,119.17867 c 0.64068,-2.29641 1.0489,-4.27181 0.90717,-4.38978 -0.14174,-0.11795 -2.989207,0.82315 -6.327698,2.09137 -4.78808,1.81887 -6.069982,2.83976 -6.069982,4.83411 0,2.60045 3.165965,12.36838 5.893761,18.18398 1.484484,3.16491 1.591646,2.9269 2.985816,-6.63083 0.795333,-5.45244 1.970253,-11.79243 2.610933,-14.08885 z m 103.45595,5.70831 c -1.7331,-9.57094 -3.09327,-11.23283 -10.75725,-13.14347 -3.88824,-0.96934 -7.06438,-1.69121 -7.05811,-1.60416 0.0225,0.31224 17.91695,18.92034 18.25093,18.97883 0.1878,0.0329 -0.007,-1.87116 -0.43557,-4.2312 z M 67.78326,107.43699 c 0.21705,0 1.32196,-2.44586 2.45537,-5.43525 1.13341,-2.98938 3.59003,-8.46889 5.45916,-12.17669 l 3.39844,-6.74146 -4.8301,0.7644 c -5.60443,0.88694 -12.437744,4.10534 -15.249055,7.18209 -3.35233,3.66886 -6.659716,12.18374 -6.686259,17.21383 l -0.02541,4.81183 7.541615,-2.80937 c 4.147879,-1.54516 7.719189,-2.80938 7.936229,-2.80938 z m 92.97172,-6.57951 C 150.52125,77.81921 133.56454,66.35216 118.77457,72.46807 c -4.76509,1.97044 -12.12828,7.59893 -12.12831,9.271 -3e-5,0.65572 2.99159,2.552 6.64802,4.21396 3.65644,1.66195 11.31511,6.01717 17.01926,9.67826 8.19924,5.26253 12.19433,7.04165 19.07707,8.49558 4.78826,1.01147 9.8473,1.91259 11.24233,2.00245 l 2.5364,0.16341 z m -34.65699,-1.07869 c -1.37095,-1.66171 -21.7945,-11.79425 -23.77297,-11.79425 -1.27748,0 -8.35991,10.8482 -8.38602,12.8449 -0.006,0.4566 7.48071,0.71405 16.63704,0.57214 12.72574,-0.19724 16.38262,-0.57956 15.52195,-1.62279 z"
     id="path3723-6"
     inkscape:connector-curvature="0"
     clip-path="url(#clipPath949)"
     transform="matrix(1.0634186,0,0,1.0203706,-10.049162,-2.6888745)" />
</svg>
